<?xml version="1.0" encoding="UTF-8" standalone="no"?>
<svg
   xmlns:dc="http://purl.org/dc/elements/1.1/"
   xmlns:cc="http://creativecommons.org/ns#"
   xmlns:rdf="http://www.w3.org/1999/02/22-rdf-syntax-ns#"
   xmlns:svg="http://www.w3.org/2000/svg"
   xmlns="http://www.w3.org/2000/svg"
   xmlns:sodipodi="http://sodipodi.sourceforge.net/DTD/sodipodi-0.dtd"
   xmlns:inkscape="http://www.inkscape.org/namespaces/inkscape"
   width="12.7mm"
   height="12.700834mm"
   viewBox="0 0 12.7 12.700834"
   version="1.1"
   id="svg38"
   inkscape:version="1.0.2-2 (e86c870879, 2021-01-15)"
   sodipodi:docname="ant_hill_control.svg">
  <defs
     id="defs32" />
  <sodipodi:namedview
     id="base"
     pagecolor="#4f4f4f"
     bordercolor="#666666"
     borderopacity="1.0"
     inkscape:pageopacity="0"
     inkscape:pageshadow="2"
     inkscape:zoom="5.2370097"
     inkscape:cx="21.238658"
     inkscape:cy="31.533791"
     inkscape:document-units="mm"
     inkscape:current-layer="layer1"
     inkscape:document-rotation="0"
     showgrid="false"
     inkscape:pagecheckerboard="false"
     fit-margin-top="0"
     fit-margin-left="0"
     fit-margin-right="0"
     fit-margin-bottom="0"
     inkscape:showpageshadow="false"
     inkscape:window-width="1278"
     inkscape:window-height="1018"
     inkscape:window-x="951"
     inkscape:window-y="0"
     inkscape:window-maximized="0" />
  <metadata
     id="metadata35">
    <rdf:RDF>
      <cc:Work
         rdf:about="">
        <dc:format>image/svg+xml</dc:format>
        <dc:type
           rdf:resource="http://purl.org/dc/dcmitype/StillImage" />
        <dc:title></dc:title>
      </cc:Work>
    </rdf:RDF>
  </metadata>
  <g
     inkscape:label="Layer 1"
     inkscape:groupmode="layer"
     id="layer1"
     transform="translate(-282.42381,-82.851964)">
    <g
       id="g30"
       transform="matrix(0.26458333,0,0,0.26458333,282.29152,82.720507)"
       style="clip-rule:evenodd;fill-rule:evenodd;image-rendering:optimizeQuality;shape-rendering:geometricPrecision;text-rendering:geometricPrecision">
      <g
         id="g25">
        <rect
           style="fill:#ffffff;stroke-width:0.979592"
           id="rect14"
           width="47.020409"
           height="47.020405"
           x="0.98979491"
           y="0.98979872" />
      </g>
      <path
         style="fill:none;stroke:#000000;stroke-width:0.979592px;stroke-linecap:butt;stroke-linejoin:miter;stroke-opacity:1"
         d="M 0.98979536,0.98979499 H 48.010204 V 48.010203 H 0.98979536 V 0.49684439"
         id="path16"
         sodipodi:nodetypes="ccccc" />
    </g>
    <g
       id="g12"
       style="clip-rule:evenodd;fill-rule:evenodd;image-rendering:optimizeQuality;shape-rendering:geometricPrecision;text-rendering:geometricPrecision"
       transform="matrix(0.0410573,0,0,0.0410573,280.502,82.636034)" />
    <g
       id="g8"
       style="clip-rule:evenodd;fill:#000000;fill-rule:evenodd;image-rendering:optimizeQuality;shape-rendering:geometricPrecision;text-rendering:geometricPrecision"
       transform="matrix(0.02935571,0,0,0.02935571,282.74113,83.352497)">
      <path
         style="opacity:1;fill:#000000"
         fill="#020202"
         d="m 372.5,214.5 c -43.005,-0.333 -86.005,0 -129,1 0.124,0.607 0.457,0.94 1,1 31.632,31.132 63.132,62.465 94.5,94 8.745,11.309 6.911,20.476 -5.5,27.5 -4.611,1.007 -8.945,0.34 -13,-2 -32.535,-32.701 -65.201,-65.201 -98,-97.5 -0.283,-0.789 -0.783,-1.456 -1.5,-2 -0.5,43.332 -0.667,86.665 -0.5,130 -1.813,8.583 -7.146,12.916 -16,13 -7.79,-0.953 -12.623,-5.287 -14.5,-13 -0.333,-43 -0.667,-86 -1,-129 -32.5,32.5 -65,65 -97.5,97.5 -9.7668,5.992 -17.6001,4.158 -23.5,-5.5 -2.4717,-6.091 -1.8051,-11.758 2,-17 32.5,-32.5 65,-65 97.5,-97.5 -44,-0.333 -88,-0.667 -132,-1 -9.6676,-4.846 -12.5009,-12.346 -8.5,-22.5 2.4516,-3.321 5.6182,-5.821 9.5,-7.5 43.6667,-0.333 87.333,-0.667 131,-1 C 134.667,150.167 101.833,117.333 69,84.5 63.7723,74.0991 66.2723,66.2658 76.5,61 c 4.4255,-0.7907 8.7589,-0.4573 13,1 32.868,33.0348 65.868,65.868 99,98.5 0.06,0.543 0.393,0.876 1,1 1,-43.662 1.333,-87.3282 1,-131 4.253,-10.7808 11.92,-13.9474 23,-9.5 2.54,2.2047 4.707,4.7047 6.5,7.5 0.333,44.3333 0.667,88.667 1,133 32.5,-32.5 65,-65 97.5,-97.5 7.859,-4.9642 15.359,-4.4642 22.5,1.5 4.511,6.6198 4.511,13.2865 0,20 -32.5,32.5 -65,65 -97.5,97.5 43,0.333 86,0.667 129,1 13.55,4.538 16.717,13.038 9.5,25.5 -2.596,2.765 -5.763,4.432 -9.5,5 z"
         id="path6" />
    </g>
  </g>
</svg>
