<?xml version="1.0" encoding="UTF-8" standalone="no"?>
<svg
   xmlns:dc="http://purl.org/dc/elements/1.1/"
   xmlns:cc="http://creativecommons.org/ns#"
   xmlns:rdf="http://www.w3.org/1999/02/22-rdf-syntax-ns#"
   xmlns:svg="http://www.w3.org/2000/svg"
   xmlns="http://www.w3.org/2000/svg"
   xmlns:sodipodi="http://sodipodi.sourceforge.net/DTD/sodipodi-0.dtd"
   xmlns:inkscape="http://www.inkscape.org/namespaces/inkscape"
   width="12.7mm"
   height="12.700834mm"
   viewBox="0 0 12.7 12.700834"
   version="1.1"
   id="svg38"
   inkscape:version="1.0.2-2 (e86c870879, 2021-01-15)"
   sodipodi:docname="beneath_control.svg">
  <defs
     id="defs32" />
  <sodipodi:namedview
     id="base"
     pagecolor="#4f4f4f"
     bordercolor="#666666"
     borderopacity="1.0"
     inkscape:pageopacity="0"
     inkscape:pageshadow="2"
     inkscape:zoom="3.959798"
     inkscape:cx="25.868203"
     inkscape:cy="28.453479"
     inkscape:document-units="mm"
     inkscape:current-layer="g12"
     inkscape:document-rotation="0"
     showgrid="false"
     inkscape:pagecheckerboard="false"
     fit-margin-top="0"
     fit-margin-left="0"
     fit-margin-right="0"
     fit-margin-bottom="0"
     inkscape:showpageshadow="false"
     inkscape:window-width="1278"
     inkscape:window-height="1018"
     inkscape:window-x="-7"
     inkscape:window-y="0"
     inkscape:window-maximized="0" />
  <metadata
     id="metadata35">
    <rdf:RDF>
      <cc:Work
         rdf:about="">
        <dc:format>image/svg+xml</dc:format>
        <dc:type
           rdf:resource="http://purl.org/dc/dcmitype/StillImage" />
        <dc:title></dc:title>
      </cc:Work>
    </rdf:RDF>
  </metadata>
  <g
     inkscape:label="Layer 1"
     inkscape:groupmode="layer"
     id="layer1"
     transform="translate(-282.42381,-82.851964)">
    <g
       id="g30"
       transform="matrix(0.26458333,0,0,0.26458333,282.29152,82.720507)"
       style="clip-rule:evenodd;fill-rule:evenodd;image-rendering:optimizeQuality;shape-rendering:geometricPrecision;text-rendering:geometricPrecision">
      <g
         id="g25">
        <rect
           style="fill:#ffffff;stroke-width:0.979592"
           id="rect14"
           width="47.020409"
           height="47.020405"
           x="0.98979491"
           y="0.98979872" />
      </g>
      <path
         style="fill:none;stroke:#000000;stroke-width:0.979592px;stroke-linecap:butt;stroke-linejoin:miter;stroke-opacity:1"
         d="M 0.98979536,0.98979499 H 48.010204 V 48.010203 H 0.98979536 V 0.49684439"
         id="path16"
         sodipodi:nodetypes="ccccc" />
    </g>
    <g
       id="g12"
       style="clip-rule:evenodd;fill-rule:evenodd;image-rendering:optimizeQuality;shape-rendering:geometricPrecision;text-rendering:geometricPrecision"
       transform="matrix(0.0410573,0,0,0.0410573,280.502,82.636034)">
      <g
         id="g116"
         transform="translate(8.0424874e-5,-14.510733)">
        <g
           id="g8"
           style="clip-rule:evenodd;fill-rule:evenodd;image-rendering:optimizeQuality;shape-rendering:geometricPrecision;text-rendering:geometricPrecision"
           transform="matrix(0.77392209,0,0,0.62653368,45.524426,82.486136)">
          <path
             style="opacity:1"
             fill="#030303"
             d="m 66.5,48.5 c 90.724,-0.4924 181.39,0.0076 272,1.5 1.878,1.5429 3.378,3.3762 4.5,5.5 0.667,61 0.667,122 0,183 -3.652,6.248 -8.819,8.081 -15.5,5.5 -2.606,-1.938 -4.439,-4.438 -5.5,-7.5 -0.5,-55.332 -0.667,-110.666 -0.5,-166 -80,0 -160,0 -240,0 0.1667,55.334 0,110.668 -0.5,166 -1.9752,6.742 -6.4752,9.575 -13.5,8.5 -4.2703,-1.27 -6.7703,-4.104 -7.5,-8.5 -0.6667,-60.333 -0.6667,-120.667 0,-181 1.6941,-2.8576 3.8607,-5.191 6.5,-7 z"
             id="path6" />
        </g>
        <path
           style="opacity:1"
           fill="#040404"
           d="m 195.5,183.5 c 19.292,-1.208 28.459,7.792 27.5,27 -6.38,15.02 -17.213,19.52 -32.5,13.5 -12.962,-10.322 -14.295,-21.988 -4,-35 3.064,-1.859 6.064,-3.692 9,-5.5 z"
           id="path10" />
      </g>
    </g>
  </g>
</svg>
