<?xml version="1.0" encoding="UTF-8" standalone="no"?>
<svg
   xmlns:dc="http://purl.org/dc/elements/1.1/"
   xmlns:cc="http://creativecommons.org/ns#"
   xmlns:rdf="http://www.w3.org/1999/02/22-rdf-syntax-ns#"
   xmlns:svg="http://www.w3.org/2000/svg"
   xmlns="http://www.w3.org/2000/svg"
   xmlns:sodipodi="http://sodipodi.sourceforge.net/DTD/sodipodi-0.dtd"
   xmlns:inkscape="http://www.inkscape.org/namespaces/inkscape"
   width="12.7mm"
   height="12.700834mm"
   viewBox="0 0 12.7 12.700834"
   version="1.1"
   id="svg38"
   inkscape:version="1.0.2-2 (e86c870879, 2021-01-15)"
   sodipodi:docname="cave_control.svg">
  <defs
     id="defs32" />
  <sodipodi:namedview
     id="base"
     pagecolor="#4f4f4f"
     bordercolor="#666666"
     borderopacity="1.0"
     inkscape:pageopacity="0"
     inkscape:pageshadow="2"
     inkscape:zoom="3.959798"
     inkscape:cx="25.868203"
     inkscape:cy="28.453479"
     inkscape:document-units="mm"
     inkscape:current-layer="layer1"
     inkscape:document-rotation="0"
     showgrid="false"
     inkscape:pagecheckerboard="false"
     fit-margin-top="0"
     fit-margin-left="0"
     fit-margin-right="0"
     fit-margin-bottom="0"
     inkscape:showpageshadow="false"
     inkscape:window-width="1278"
     inkscape:window-height="1018"
     inkscape:window-x="-7"
     inkscape:window-y="0"
     inkscape:window-maximized="0" />
  <metadata
     id="metadata35">
    <rdf:RDF>
      <cc:Work
         rdf:about="">
        <dc:format>image/svg+xml</dc:format>
        <dc:type
           rdf:resource="http://purl.org/dc/dcmitype/StillImage" />
        <dc:title></dc:title>
      </cc:Work>
    </rdf:RDF>
  </metadata>
  <g
     inkscape:label="Layer 1"
     inkscape:groupmode="layer"
     id="layer1"
     transform="translate(-282.42381,-82.851964)">
    <g
       id="g30"
       transform="matrix(0.26458333,0,0,0.26458333,282.29152,82.720507)"
       style="clip-rule:evenodd;fill-rule:evenodd;image-rendering:optimizeQuality;shape-rendering:geometricPrecision;text-rendering:geometricPrecision">
      <g
         id="g25">
        <rect
           style="fill:#ffffff;stroke-width:0.979592"
           id="rect14"
           width="47.020409"
           height="47.020405"
           x="0.98979491"
           y="0.98979872" />
      </g>
      <path
         style="fill:none;stroke:#000000;stroke-width:0.979592px;stroke-linecap:butt;stroke-linejoin:miter;stroke-opacity:1"
         d="M 0.98979536,0.98979499 H 48.010204 V 48.010203 H 0.98979536 V 0.49684439"
         id="path16"
         sodipodi:nodetypes="ccccc" />
    </g>
    <g
       id="g12"
       style="clip-rule:evenodd;fill-rule:evenodd;image-rendering:optimizeQuality;shape-rendering:geometricPrecision;text-rendering:geometricPrecision"
       transform="matrix(0.0410573,0,0,0.0410573,280.502,82.636034)" />
    <g
       id="g8"
       style="clip-rule:evenodd;fill-rule:evenodd;image-rendering:optimizeQuality;shape-rendering:geometricPrecision;text-rendering:geometricPrecision"
       transform="matrix(0.02302498,0,0,0.02302498,284.41786,83.917505)">
      <path
         style="opacity:1"
         fill="#020202"
         d="m 138.5,28.5 c 6.426,-0.4698 11.926,1.5302 16.5,6 30.092,43.5263 50.925,91.193 62.5,143 16.128,-5.098 32.295,-10.098 48.5,-15 14.604,2.871 18.937,11.205 13,25 -1.543,1.878 -3.376,3.378 -5.5,4.5 -37.515,12.283 -74.848,24.949 -112,38 38.999,12.555 77.666,25.888 116,40 5.829,8.543 5.163,16.543 -2,24 -4.43,2.27 -9.097,2.937 -14,2 -14.665,-4.944 -29.332,-9.777 -44,-14.5 -11.501,53.712 -33.501,102.546 -66,146.5 -11.472,5.508 -19.305,2.341 -23.5,-9.5 -0.667,-2.667 -0.667,-5.333 0,-8 21.769,-32.207 38.769,-66.873 51,-104 3.092,-11.205 6.259,-22.372 9.5,-33.5 -0.405,-0.945 -1.072,-1.612 -2,-2 -27,-9 -54,-18 -81,-27 -9.3273,-6.476 -11.1606,-14.643 -5.5,-24.5 2.08,-1.623 4.246,-3.123 6.5,-4.5 27.203,-9.346 54.537,-18.179 82,-26.5 -7.304,-35.076 -19.471,-68.409 -36.5,-100 -8.266,-13.5347 -16.266,-27.2014 -24,-41 -1.196,-8.9432 2.304,-15.2765 10.5,-19 z"
         id="path6" />
    </g>
  </g>
</svg>
