<?xml version="1.0" encoding="UTF-8" standalone="no"?>
<svg
   xmlns:dc="http://purl.org/dc/elements/1.1/"
   xmlns:cc="http://creativecommons.org/ns#"
   xmlns:rdf="http://www.w3.org/1999/02/22-rdf-syntax-ns#"
   xmlns:svg="http://www.w3.org/2000/svg"
   xmlns="http://www.w3.org/2000/svg"
   xmlns:sodipodi="http://sodipodi.sourceforge.net/DTD/sodipodi-0.dtd"
   xmlns:inkscape="http://www.inkscape.org/namespaces/inkscape"
   width="12.7mm"
   height="12.700834mm"
   viewBox="0 0 12.7 12.700834"
   version="1.1"
   id="svg38"
   inkscape:version="1.0.2-2 (e86c870879, 2021-01-15)"
   sodipodi:docname="deep_control.svg">
  <defs
     id="defs32" />
  <sodipodi:namedview
     id="base"
     pagecolor="#4f4f4f"
     bordercolor="#666666"
     borderopacity="1.0"
     inkscape:pageopacity="0"
     inkscape:pageshadow="2"
     inkscape:zoom="3.959798"
     inkscape:cx="22.599856"
     inkscape:cy="22.018621"
     inkscape:document-units="mm"
     inkscape:current-layer="layer1"
     inkscape:document-rotation="0"
     showgrid="false"
     inkscape:pagecheckerboard="false"
     fit-margin-top="0"
     fit-margin-left="0"
     fit-margin-right="0"
     fit-margin-bottom="0"
     inkscape:showpageshadow="false"
     inkscape:window-width="1278"
     inkscape:window-height="1018"
     inkscape:window-x="-7"
     inkscape:window-y="0"
     inkscape:window-maximized="0" />
  <metadata
     id="metadata35">
    <rdf:RDF>
      <cc:Work
         rdf:about="">
        <dc:format>image/svg+xml</dc:format>
        <dc:type
           rdf:resource="http://purl.org/dc/dcmitype/StillImage" />
        <dc:title></dc:title>
      </cc:Work>
    </rdf:RDF>
  </metadata>
  <g
     inkscape:label="Layer 1"
     inkscape:groupmode="layer"
     id="layer1"
     transform="translate(-282.42381,-82.851964)">
    <g
       id="g30"
       transform="matrix(0.26458333,0,0,0.26458333,282.29152,82.720507)"
       style="clip-rule:evenodd;fill-rule:evenodd;image-rendering:optimizeQuality;shape-rendering:geometricPrecision;text-rendering:geometricPrecision">
      <g
         id="g25">
        <rect
           style="fill:#ffffff;stroke-width:0.979592"
           id="rect14"
           width="47.020409"
           height="47.020405"
           x="0.98979491"
           y="0.98979872" />
      </g>
      <path
         style="fill:none;stroke:#000000;stroke-width:0.979592px;stroke-linecap:butt;stroke-linejoin:miter;stroke-opacity:1"
         d="M 0.98979536,0.98979499 H 48.010204 V 48.010203 H 0.98979536 V 0.49684439"
         id="path16"
         sodipodi:nodetypes="ccccc" />
    </g>
    <g
       id="g12"
       style="clip-rule:evenodd;fill-rule:evenodd;image-rendering:optimizeQuality;shape-rendering:geometricPrecision;text-rendering:geometricPrecision"
       transform="matrix(0.0410573,0,0,0.0410573,280.502,82.636034)" />
    <g
       id="g8"
       style="clip-rule:evenodd;fill-rule:evenodd;image-rendering:optimizeQuality;shape-rendering:geometricPrecision;text-rendering:geometricPrecision"
       transform="matrix(0.03635174,0,0,0.03635174,282.59185,82.812323)">
      <path
         style="opacity:1"
         fill="#030303"
         d="m 49.5,48.5 c 23.5698,-2.1951 44.5698,3.9715 63,18.5 9.518,9.8627 16.351,21.3627 20.5,34.5 3.16,11.467 5.16,23.134 6,35 0.391,25.501 0.225,51.001 -0.5,76.5 -0.068,13.196 0.432,26.362 1.5,39.5 3.889,22.562 17.056,31.729 39.5,27.5 11.395,-3.736 18.229,-11.569 20.5,-23.5 2.025,-13.409 2.859,-26.909 2.5,-40.5 -0.815,-27.498 -0.981,-54.998 -0.5,-82.5 0.688,-22.066 7.355,-42.0655 20,-60 18.994,-19.6667 42.161,-27.8333 69.5,-24.5 4.151,1.8002 6.151,4.9669 6,9.5 0.019,5.1428 -2.314,8.6428 -7,10.5 -14.929,-0.434 -28.929,2.8993 -42,10 -12.177,9.1704 -19.677,21.337 -22.5,36.5 -1.543,6.922 -2.543,13.922 -3,21 -0.639,25.693 -0.139,51.36 1.5,77 0.813,18.626 -1.02,36.959 -5.5,55 -7.79,23.412 -24.124,35.079 -49,35 -25.599,-0.286 -41.932,-12.619 -49,-37 -1.798,-7.583 -3.131,-15.25 -4,-23 -0.127,-38.001 -0.127,-76.001 0,-114 -1.209,-15.97 -6.542,-30.303 -16,-43 C 93.4739,78.6525 84.3072,73.8192 73.5,72 64.8216,70.4639 56.1549,69.1305 47.5,68 40.3716,60.6205 41.0383,54.1205 49.5,48.5 Z"
         id="path6" />
    </g>
  </g>
</svg>
