<?xml version="1.0" encoding="UTF-8" standalone="no"?>
<svg
   xmlns:dc="http://purl.org/dc/elements/1.1/"
   xmlns:cc="http://creativecommons.org/ns#"
   xmlns:rdf="http://www.w3.org/1999/02/22-rdf-syntax-ns#"
   xmlns:svg="http://www.w3.org/2000/svg"
   xmlns="http://www.w3.org/2000/svg"
   xmlns:sodipodi="http://sodipodi.sourceforge.net/DTD/sodipodi-0.dtd"
   xmlns:inkscape="http://www.inkscape.org/namespaces/inkscape"
   width="12.7mm"
   height="12.700834mm"
   viewBox="0 0 12.7 12.700834"
   version="1.1"
   id="svg38"
   inkscape:version="1.0.2-2 (e86c870879, 2021-01-15)"
   sodipodi:docname="earth_bank_control.svg">
  <defs
     id="defs32" />
  <sodipodi:namedview
     id="base"
     pagecolor="#4f4f4f"
     bordercolor="#666666"
     borderopacity="1.0"
     inkscape:pageopacity="0"
     inkscape:pageshadow="2"
     inkscape:zoom="3.959798"
     inkscape:cx="22.599856"
     inkscape:cy="22.018621"
     inkscape:document-units="mm"
     inkscape:current-layer="layer1"
     inkscape:document-rotation="0"
     showgrid="false"
     inkscape:pagecheckerboard="false"
     fit-margin-top="0"
     fit-margin-left="0"
     fit-margin-right="0"
     fit-margin-bottom="0"
     inkscape:showpageshadow="false"
     inkscape:window-width="1278"
     inkscape:window-height="1018"
     inkscape:window-x="-7"
     inkscape:window-y="0"
     inkscape:window-maximized="0" />
  <metadata
     id="metadata35">
    <rdf:RDF>
      <cc:Work
         rdf:about="">
        <dc:format>image/svg+xml</dc:format>
        <dc:type
           rdf:resource="http://purl.org/dc/dcmitype/StillImage" />
        <dc:title></dc:title>
      </cc:Work>
    </rdf:RDF>
  </metadata>
  <g
     inkscape:label="Layer 1"
     inkscape:groupmode="layer"
     id="layer1"
     transform="translate(-282.42381,-82.851964)">
    <g
       id="g30"
       transform="matrix(0.26458333,0,0,0.26458333,282.29152,82.720507)"
       style="clip-rule:evenodd;fill-rule:evenodd;image-rendering:optimizeQuality;shape-rendering:geometricPrecision;text-rendering:geometricPrecision">
      <g
         id="g25">
        <rect
           style="fill:#ffffff;stroke-width:0.979592"
           id="rect14"
           width="47.020409"
           height="47.020405"
           x="0.98979491"
           y="0.98979872" />
      </g>
      <path
         style="fill:none;stroke:#000000;stroke-width:0.979592px;stroke-linecap:butt;stroke-linejoin:miter;stroke-opacity:1"
         d="M 0.98979536,0.98979499 H 48.010204 V 48.010203 H 0.98979536 V 0.49684439"
         id="path16"
         sodipodi:nodetypes="ccccc" />
    </g>
    <g
       id="g12"
       style="clip-rule:evenodd;fill-rule:evenodd;image-rendering:optimizeQuality;shape-rendering:geometricPrecision;text-rendering:geometricPrecision"
       transform="matrix(0.0410573,0,0,0.0410573,280.502,82.636034)" />
    <g
       id="g8"
       style="clip-rule:evenodd;fill-rule:evenodd;image-rendering:optimizeQuality;shape-rendering:geometricPrecision;text-rendering:geometricPrecision"
       transform="matrix(0.02726446,0,0,0.02726446,283.4143,86.210048)">
      <path
         style="opacity:1"
         fill="#020202"
         d="m 224.5,104.5 c 0,-1.333 0,-2.667 0,-4 -5.195,-0.321 -10.195,0.013 -15,1 -13.35,0.139 -26.683,-0.194 -40,-1 -2.838,25.368 -6.004,50.701 -9.5,76 -4.502,9.168 -11.668,12.335 -21.5,9.5 -5.84,-3.675 -8.84,-9.008 -9,-16 3.615,-24.09 6.615,-48.257 9,-72.5 -13.9,-2.2131 -27.733,-4.8798 -41.5,-8 -0.8333,0.3333 -1.6667,0.6667 -2.5,1 -6.5,13 -13,26 -19.5,39 -8.3647,7.932 -16.698,7.932 -25,0 -2.3104,-4.766 -2.9771,-9.766 -2,-15 C 54.2244,103.218 60.0577,91.7181 65.5,80 65.3552,79.228 65.0219,78.5613 64.5,78 51.4518,72.7309 39.6184,65.5642 29,56.5 24.0631,45.8712 26.8965,38.0379 37.5,33 c 3,-0.6667 6,-0.6667 9,0 32.8152,21.2727 68.815,33.6061 108,37 54.954,6.5076 108.288,0.1743 160,-19 10.649,-4.6542 20.649,-10.3209 30,-17 12.177,-3.4109 19.51,1.0891 22,13.5 0.069,4.9157 -1.597,9.0824 -5,12.5 -10.912,7.2875 -22.245,13.7875 -34,19.5 5.833,11.6667 11.667,23.333 17.5,35 2.016,14.984 -4.484,21.817 -19.5,20.5 -3.062,-1.061 -5.562,-2.894 -7.5,-5.5 -6.673,-14.017 -13.84,-27.683 -21.5,-41 -13.012,4.1696 -26.346,7.0029 -40,8.5 -0.928,0.3879 -1.595,1.0546 -2,2 3.327,23.616 6.327,47.283 9,71 -1.187,13.859 -8.52,19.192 -22,16 -4.288,-2.292 -7.122,-5.792 -8.5,-10.5 -2.588,-23.705 -5.421,-47.371 -8.5,-71 z"
         id="path6" />
    </g>
  </g>
</svg>
