<?xml version="1.0" encoding="UTF-8" standalone="no"?>
<svg
   xmlns:dc="http://purl.org/dc/elements/1.1/"
   xmlns:cc="http://creativecommons.org/ns#"
   xmlns:rdf="http://www.w3.org/1999/02/22-rdf-syntax-ns#"
   xmlns:svg="http://www.w3.org/2000/svg"
   xmlns="http://www.w3.org/2000/svg"
   xmlns:sodipodi="http://sodipodi.sourceforge.net/DTD/sodipodi-0.dtd"
   xmlns:inkscape="http://www.inkscape.org/namespaces/inkscape"
   width="12.7mm"
   height="12.700834mm"
   viewBox="0 0 12.7 12.700834"
   version="1.1"
   id="svg38"
   inkscape:version="1.0.2-2 (e86c870879, 2021-01-15)"
   sodipodi:docname="earth_wall_control.svg">
  <defs
     id="defs32" />
  <sodipodi:namedview
     id="base"
     pagecolor="#4f4f4f"
     bordercolor="#666666"
     borderopacity="1.0"
     inkscape:pageopacity="0"
     inkscape:pageshadow="2"
     inkscape:zoom="5.6"
     inkscape:cx="18.970037"
     inkscape:cy="23.069071"
     inkscape:document-units="mm"
     inkscape:current-layer="layer1"
     inkscape:document-rotation="0"
     showgrid="false"
     inkscape:pagecheckerboard="false"
     fit-margin-top="0"
     fit-margin-left="0"
     fit-margin-right="0"
     fit-margin-bottom="0"
     inkscape:showpageshadow="false"
     inkscape:window-width="1278"
     inkscape:window-height="1018"
     inkscape:window-x="-7"
     inkscape:window-y="0"
     inkscape:window-maximized="0" />
  <metadata
     id="metadata35">
    <rdf:RDF>
      <cc:Work
         rdf:about="">
        <dc:format>image/svg+xml</dc:format>
        <dc:type
           rdf:resource="http://purl.org/dc/dcmitype/StillImage" />
        <dc:title></dc:title>
      </cc:Work>
    </rdf:RDF>
  </metadata>
  <g
     inkscape:label="Layer 1"
     inkscape:groupmode="layer"
     id="layer1"
     transform="translate(-282.42381,-82.851964)">
    <g
       id="g30"
       transform="matrix(0.26458333,0,0,0.26458333,282.29152,82.720507)"
       style="clip-rule:evenodd;fill-rule:evenodd;image-rendering:optimizeQuality;shape-rendering:geometricPrecision;text-rendering:geometricPrecision">
      <g
         id="g25">
        <rect
           style="fill:#ffffff;stroke-width:0.979592"
           id="rect14"
           width="47.020409"
           height="47.020405"
           x="0.98979491"
           y="0.98979872" />
      </g>
      <path
         style="fill:none;stroke:#000000;stroke-width:0.979592px;stroke-linecap:butt;stroke-linejoin:miter;stroke-opacity:1"
         d="M 0.98979536,0.98979499 H 48.010204 V 48.010203 H 0.98979536 V 0.49684439"
         id="path16"
         sodipodi:nodetypes="ccccc" />
    </g>
    <g
       id="g12"
       style="clip-rule:evenodd;fill-rule:evenodd;image-rendering:optimizeQuality;shape-rendering:geometricPrecision;text-rendering:geometricPrecision"
       transform="matrix(0.0410573,0,0,0.0410573,280.502,82.636034)" />
    <g
       id="g8"
       style="clip-rule:evenodd;fill-rule:evenodd;image-rendering:optimizeQuality;shape-rendering:geometricPrecision;text-rendering:geometricPrecision"
       transform="matrix(0.02728019,0,0,0.02728019,282.85755,86.175306)">
      <path
         style="opacity:1"
         fill="#020202"
         d="m 176.5,33.5 c 9.475,-0.6854 15.975,3.3146 19.5,12 0.5,16.6633 0.667,33.33 0.5,50 13.667,0 27.333,0 41,0 -0.167,-17.0033 0,-34.0033 0.5,-51 5.471,-11.3195 13.638,-13.8195 24.5,-7.5 2.2,2.2336 4.033,4.7336 5.5,7.5 0.5,16.9967 0.667,33.9967 0.5,51 12,0 24,0 36,0 -0.166,-10.3387 0,-20.672 0.5,-31 5.266,-10.2277 13.099,-12.7277 23.5,-7.5 2.933,2.2643 5.1,5.0976 6.5,8.5 0.5,9.9944 0.666,19.9944 0.5,30 13.004,-0.1666 26.004,1e-4 39,0.5 12.612,5.069 15.445,13.569 8.5,25.5 -2.251,1.877 -4.751,3.377 -7.5,4.5 -13.329,0.5 -26.663,0.667 -40,0.5 0.403,10.731 -0.097,21.398 -1.5,32 -6.447,9.567 -14.614,11.4 -24.5,5.5 -1.541,-1.579 -2.708,-3.413 -3.5,-5.5 -1.429,-10.588 -1.929,-21.255 -1.5,-32 -12,0 -24,0 -36,0 0.167,16.337 0,32.67 -0.5,49 -2.022,8.351 -7.355,12.685 -16,13 -7.115,-1.114 -11.782,-5.114 -14,-12 -0.5,-16.663 -0.667,-33.33 -0.5,-50 -13.667,0 -27.333,0 -41,0 0.167,16.337 0,32.67 -0.5,49 -2.022,8.351 -7.355,12.685 -16,13 -7.115,-1.114 -11.782,-5.114 -14,-12 -0.5,-16.663 -0.667,-33.33 -0.5,-50 -12,0 -24,0 -36,0 0.166,9.339 0,18.673 -0.5,28 -3.584,11.376 -11.084,15.209 -22.5,11.5 -2.833,-1.5 -5,-3.667 -6.5,-6.5 -1.4312,-10.922 -1.9312,-21.922 -1.5,-33 -13.6707,0.167 -27.3374,0 -41,-0.5 -9.9903,-5.307 -12.8236,-13.141 -8.5,-23.5 2.2643,-2.9335 5.0976,-5.1001 8.5,-6.5 13.6626,-0.4999 27.3293,-0.6666 41,-0.5 -0.1665,-10.3387 2e-4,-20.672 0.5,-31 5.266,-10.2277 13.099,-12.7277 23.5,-7.5 2.209,1.8734 4.042,4.04 5.5,6.5 1.429,10.5885 1.929,21.2551 1.5,32 12,0 24,0 36,0 -0.167,-17.3365 0,-34.6699 0.5,-52 2.738,-4.2405 6.238,-7.5738 10.5,-10 z"
         id="path6" />
    </g>
  </g>
</svg>
