<?xml version="1.0" encoding="UTF-8" standalone="no"?>
<svg
   xmlns:dc="http://purl.org/dc/elements/1.1/"
   xmlns:cc="http://creativecommons.org/ns#"
   xmlns:rdf="http://www.w3.org/1999/02/22-rdf-syntax-ns#"
   xmlns:svg="http://www.w3.org/2000/svg"
   xmlns="http://www.w3.org/2000/svg"
   xmlns:sodipodi="http://sodipodi.sourceforge.net/DTD/sodipodi-0.dtd"
   xmlns:inkscape="http://www.inkscape.org/namespaces/inkscape"
   width="12.7mm"
   height="12.700834mm"
   viewBox="0 0 12.7 12.700834"
   version="1.1"
   id="svg38"
   inkscape:version="1.0.2-2 (e86c870879, 2021-01-15)"
   sodipodi:docname="fence_control.svg">
  <defs
     id="defs32" />
  <sodipodi:namedview
     id="base"
     pagecolor="#4f4f4f"
     bordercolor="#666666"
     borderopacity="1.0"
     inkscape:pageopacity="0"
     inkscape:pageshadow="2"
     inkscape:zoom="5.6"
     inkscape:cx="18.970037"
     inkscape:cy="23.069071"
     inkscape:document-units="mm"
     inkscape:current-layer="layer1"
     inkscape:document-rotation="0"
     showgrid="false"
     inkscape:pagecheckerboard="false"
     fit-margin-top="0"
     fit-margin-left="0"
     fit-margin-right="0"
     fit-margin-bottom="0"
     inkscape:showpageshadow="false"
     inkscape:window-width="1278"
     inkscape:window-height="1018"
     inkscape:window-x="-7"
     inkscape:window-y="0"
     inkscape:window-maximized="0" />
  <metadata
     id="metadata35">
    <rdf:RDF>
      <cc:Work
         rdf:about="">
        <dc:format>image/svg+xml</dc:format>
        <dc:type
           rdf:resource="http://purl.org/dc/dcmitype/StillImage" />
        <dc:title></dc:title>
      </cc:Work>
    </rdf:RDF>
  </metadata>
  <g
     inkscape:label="Layer 1"
     inkscape:groupmode="layer"
     id="layer1"
     transform="translate(-282.42381,-82.851964)">
    <g
       id="g30"
       transform="matrix(0.26458333,0,0,0.26458333,282.29152,82.720507)"
       style="clip-rule:evenodd;fill-rule:evenodd;image-rendering:optimizeQuality;shape-rendering:geometricPrecision;text-rendering:geometricPrecision">
      <g
         id="g25">
        <rect
           style="fill:#ffffff;stroke-width:0.979592"
           id="rect14"
           width="47.020409"
           height="47.020405"
           x="0.98979491"
           y="0.98979872" />
      </g>
      <path
         style="fill:none;stroke:#000000;stroke-width:0.979592px;stroke-linecap:butt;stroke-linejoin:miter;stroke-opacity:1"
         d="M 0.98979536,0.98979499 H 48.010204 V 48.010203 H 0.98979536 V 0.49684439"
         id="path16"
         sodipodi:nodetypes="ccccc" />
    </g>
    <g
       id="g12"
       style="clip-rule:evenodd;fill-rule:evenodd;image-rendering:optimizeQuality;shape-rendering:geometricPrecision;text-rendering:geometricPrecision"
       transform="matrix(0.0410573,0,0,0.0410573,280.502,82.636034)" />
    <g
       id="g8"
       style="clip-rule:evenodd;fill-rule:evenodd;image-rendering:optimizeQuality;shape-rendering:geometricPrecision;text-rendering:geometricPrecision"
       transform="matrix(0.0385576,0,0,0.0385576,282.97089,83.508633)">
      <path
         style="opacity:1"
         fill="#010101"
         d="m 227.5,98.5 c 0.167,-11.3382 0,-22.6716 -0.5,-34 -0.717,0.5442 -1.217,1.2109 -1.5,2 -11.632,11.1313 -23.132,22.4646 -34.5,34 -0.333,19.333 -0.667,38.667 -1,58 -2.73,6.553 -7.563,8.72 -14.5,6.5 -3.317,-1.48 -5.317,-3.98 -6,-7.5 0.167,-11.671 0,-23.338 -0.5,-35 -0.717,0.544 -1.217,1.211 -1.5,2 -11.632,11.131 -23.132,22.465 -34.5,34 -0.333,19 -0.667,38 -1,57 -1.288,5.821 -4.954,8.821 -11,9 -5.557,-0.558 -8.89,-3.558 -10,-9 -0.333,-11.333 -0.667,-22.667 -1,-34 -11.6667,11.667 -23.3333,23.333 -35,35 -0.3333,14.333 -0.6667,28.667 -1,43 -2.8341,7.166 -8.0008,9.666 -15.5,7.5 -2.9281,-1.26 -4.7614,-3.427 -5.5,-6.5 -0.6667,-17.333 -0.6667,-34.667 0,-52 C 113.194,147.972 173.694,87.8058 234.5,28 c 5.843,-1.3249 10.343,0.5084 13.5,5.5 0.667,22.6667 0.667,45.3333 0,68 -5.05,6.632 -11.05,7.632 -18,3 -1.122,-1.907 -1.955,-3.907 -2.5,-6 z"
         id="path6" />
    </g>
  </g>
</svg>
