<?xml version="1.0" encoding="UTF-8" standalone="no"?>
<svg
   xmlns:dc="http://purl.org/dc/elements/1.1/"
   xmlns:cc="http://creativecommons.org/ns#"
   xmlns:rdf="http://www.w3.org/1999/02/22-rdf-syntax-ns#"
   xmlns:svg="http://www.w3.org/2000/svg"
   xmlns="http://www.w3.org/2000/svg"
   xmlns:sodipodi="http://sodipodi.sourceforge.net/DTD/sodipodi-0.dtd"
   xmlns:inkscape="http://www.inkscape.org/namespaces/inkscape"
   width="12.7mm"
   height="12.700834mm"
   viewBox="0 0 12.7 12.700834"
   version="1.1"
   id="svg38"
   inkscape:version="1.0.2-2 (e86c870879, 2021-01-15)"
   sodipodi:docname="height_on_slope.svg">
  <defs
     id="defs32" />
  <sodipodi:namedview
     id="base"
     pagecolor="#4f4f4f"
     bordercolor="#666666"
     borderopacity="1.0"
     inkscape:pageopacity="0"
     inkscape:pageshadow="2"
     inkscape:zoom="3.959798"
     inkscape:cx="9.8320315"
     inkscape:cy="28.453479"
     inkscape:document-units="mm"
     inkscape:current-layer="text861"
     inkscape:document-rotation="0"
     showgrid="false"
     inkscape:pagecheckerboard="false"
     fit-margin-top="0"
     fit-margin-left="0"
     fit-margin-right="0"
     fit-margin-bottom="0"
     inkscape:showpageshadow="false"
     inkscape:window-width="1306"
     inkscape:window-height="1018"
     inkscape:window-x="-7"
     inkscape:window-y="0"
     inkscape:window-maximized="0" />
  <metadata
     id="metadata35">
    <rdf:RDF>
      <cc:Work
         rdf:about="">
        <dc:format>image/svg+xml</dc:format>
        <dc:type
           rdf:resource="http://purl.org/dc/dcmitype/StillImage" />
        <dc:title></dc:title>
      </cc:Work>
    </rdf:RDF>
  </metadata>
  <g
     inkscape:label="Layer 1"
     inkscape:groupmode="layer"
     id="layer1"
     transform="translate(-282.42381,-82.851964)">
    <g
       id="g30"
       transform="matrix(0.26458333,0,0,0.26458333,282.29152,82.720507)"
       style="clip-rule:evenodd;fill-rule:evenodd;image-rendering:optimizeQuality;shape-rendering:geometricPrecision;text-rendering:geometricPrecision">
      <g
         id="g25">
        <rect
           style="fill:#ffffff;stroke-width:0.979592"
           id="rect14"
           width="47.020409"
           height="47.020405"
           x="0.98979491"
           y="0.98979872" />
      </g>
      <path
         style="fill:none;stroke:#000000;stroke-width:0.979592px;stroke-linecap:butt;stroke-linejoin:miter;stroke-opacity:1"
         d="M 0.98979536,0.98979499 H 48.010204 V 48.010203 H 0.98979536 V 0.49684439"
         id="path16"
         sodipodi:nodetypes="ccccc" />
    </g>
    <g
       id="g12"
       style="clip-rule:evenodd;fill-rule:evenodd;image-rendering:optimizeQuality;shape-rendering:geometricPrecision;text-rendering:geometricPrecision"
       transform="matrix(0.0410573,0,0,0.0410573,280.502,82.636034)" />
    <g
       aria-label="1.5"
       id="text839"
       style="font-style:normal;font-variant:normal;font-weight:normal;font-stretch:normal;font-size:7.05556px;line-height:1.25;font-family:Arial;-inkscape-font-specification:'Arial, Normal';font-variant-ligatures:normal;font-variant-caps:normal;font-variant-numeric:normal;font-variant-east-asian:normal;stroke-width:0.264583">
      <g
         aria-label="1.5"
         id="text861"
         style="font-size:10.5833px;line-height:1.25;font-family:Arial;-inkscape-font-specification:'Arial, Normal';stroke-width:0.0700042">
        <g
           aria-label="0.5"
           id="text872"
           style="font-size:10.5833px;line-height:1.25;font-family:Arial;-inkscape-font-specification:'Arial, Normal';stroke-width:0.0185219">
          <path
             d="m 283.93586,86.435603 q 0,-0.537434 0.10956,-0.864029 0.11162,-0.328662 0.32866,-0.506429 0.21911,-0.177767 0.54983,-0.177767 0.24392,0 0.42789,0.09922 0.18396,0.09715 0.30385,0.283187 0.11989,0.183968 0.1881,0.450618 0.0682,0.264583 0.0682,0.715201 0,0.5333 -0.10956,0.861962 -0.10955,0.326595 -0.32866,0.506429 -0.21704,0.177767 -0.54984,0.177767 -0.43821,0 -0.68832,-0.314193 -0.29973,-0.378271 -0.29973,-1.231965 z m 0.38241,0 q 0,0.746207 0.17363,0.994254 0.1757,0.245979 0.43201,0.245979 0.25632,0 0.42995,-0.248046 0.1757,-0.248047 0.1757,-0.992187 0,-0.748274 -0.1757,-0.994254 -0.17363,-0.245979 -0.43408,-0.245979 -0.25631,0 -0.40928,0.217041 -0.19223,0.276985 -0.19223,1.023192 z"
             style="font-style:normal;font-variant:normal;font-weight:normal;font-stretch:normal;font-size:4.23333px;font-family:Arial;-inkscape-font-specification:'Arial, Normal';font-variant-ligatures:normal;font-variant-caps:normal;font-variant-numeric:normal;font-variant-east-asian:normal;stroke-width:0.0185219"
             id="path880" />
          <path
             d="m 286.49901,87.930084 v -0.423746 h 0.42375 v 0.423746 z"
             style="font-style:normal;font-variant:normal;font-weight:normal;font-stretch:normal;font-size:4.23333px;font-family:Arial;-inkscape-font-specification:'Arial, Normal';font-variant-ligatures:normal;font-variant-caps:normal;font-variant-numeric:normal;font-variant-east-asian:normal;stroke-width:0.0185219"
             id="path882" />
          <path
             d="m 287.46639,87.136335 0.39068,-0.03307 q 0.0434,0.285254 0.2005,0.429948 0.15916,0.142626 0.38241,0.142626 0.26871,0 0.45475,-0.202571 0.18603,-0.202571 0.18603,-0.537434 0,-0.318327 -0.17983,-0.502295 -0.17777,-0.183968 -0.46715,-0.183968 -0.17984,0 -0.32453,0.08268 -0.1447,0.08061 -0.22738,0.21084 l -0.34933,-0.04548 0.29352,-1.556493 h 1.50688 v 0.355533 h -1.20922 l -0.1633,0.81442 q 0.27285,-0.190169 0.57257,-0.190169 0.39688,0 0.66973,0.274919 0.27285,0.274918 0.27285,0.706933 0,0.411344 -0.23978,0.711067 -0.29145,0.367936 -0.79581,0.367936 -0.41341,0 -0.67593,-0.231511 -0.26045,-0.23151 -0.29766,-0.613915 z"
             style="font-style:normal;font-variant:normal;font-weight:normal;font-stretch:normal;font-size:4.23333px;font-family:Arial;-inkscape-font-specification:'Arial, Normal';font-variant-ligatures:normal;font-variant-caps:normal;font-variant-numeric:normal;font-variant-east-asian:normal;stroke-width:0.0185219"
             id="path884" />
        </g>
        <g
           aria-label="2"
           id="text876"
           style="font-size:10.5833px;line-height:1.25;font-family:Arial;-inkscape-font-specification:'Arial, Normal';stroke-width:0.0185219">
          <path
             d="m 292.43939,93.185139 v 0.357601 h -2.00297 q -0.004,-0.134359 0.0434,-0.258382 0.0765,-0.204639 0.24392,-0.403076 0.16949,-0.198437 0.48782,-0.458886 0.49403,-0.405143 0.66766,-0.640787 0.17363,-0.237712 0.17363,-0.448552 0,-0.221174 -0.15916,-0.37207 -0.1571,-0.152962 -0.41134,-0.152962 -0.26872,0 -0.42995,0.161231 -0.16123,0.16123 -0.1633,0.446484 l -0.3824,-0.03927 q 0.0393,-0.427881 0.29558,-0.651123 0.25632,-0.225309 0.68833,-0.225309 0.43615,0 0.6904,0.241846 0.25425,0.241845 0.25425,0.599446 0,0.181901 -0.0744,0.3576 -0.0744,0.1757 -0.24804,0.370003 -0.17157,0.194303 -0.57258,0.533301 -0.33486,0.281119 -0.42994,0.382405 -0.0951,0.09922 -0.1571,0.200504 z"
             style="font-style:normal;font-variant:normal;font-weight:normal;font-stretch:normal;font-size:4.23333px;font-family:Arial;-inkscape-font-specification:'Arial, Normal';font-variant-ligatures:normal;font-variant-caps:normal;font-variant-numeric:normal;font-variant-east-asian:normal;stroke-width:0.0185219"
             id="path887" />
        </g>
        <path
           style="fill:none;stroke:#000000;stroke-width:0.5;stroke-linecap:butt;stroke-linejoin:miter;stroke-miterlimit:4;stroke-dasharray:none;stroke-opacity:1"
           d="m 292.71963,85.256567 -7.89164,7.891629"
           id="path878" />
      </g>
    </g>
  </g>
</svg>
