<?xml version="1.0" encoding="UTF-8" standalone="no"?>
<svg
   xmlns:dc="http://purl.org/dc/elements/1.1/"
   xmlns:cc="http://creativecommons.org/ns#"
   xmlns:rdf="http://www.w3.org/1999/02/22-rdf-syntax-ns#"
   xmlns:svg="http://www.w3.org/2000/svg"
   xmlns="http://www.w3.org/2000/svg"
   xmlns:sodipodi="http://sodipodi.sourceforge.net/DTD/sodipodi-0.dtd"
   xmlns:inkscape="http://www.inkscape.org/namespaces/inkscape"
   width="12.7mm"
   height="12.700834mm"
   viewBox="0 0 12.7 12.700834"
   version="1.1"
   id="svg38"
   inkscape:version="1.0.2-2 (e86c870879, 2021-01-15)"
   sodipodi:docname="height_two_features.svg">
  <defs
     id="defs32" />
  <sodipodi:namedview
     id="base"
     pagecolor="#4f4f4f"
     bordercolor="#666666"
     borderopacity="1.0"
     inkscape:pageopacity="0"
     inkscape:pageshadow="2"
     inkscape:zoom="3.959798"
     inkscape:cx="9.8320315"
     inkscape:cy="28.453479"
     inkscape:document-units="mm"
     inkscape:current-layer="text861"
     inkscape:document-rotation="0"
     showgrid="false"
     inkscape:pagecheckerboard="false"
     fit-margin-top="0"
     fit-margin-left="0"
     fit-margin-right="0"
     fit-margin-bottom="0"
     inkscape:showpageshadow="false"
     inkscape:window-width="1306"
     inkscape:window-height="1018"
     inkscape:window-x="-7"
     inkscape:window-y="0"
     inkscape:window-maximized="0" />
  <metadata
     id="metadata35">
    <rdf:RDF>
      <cc:Work
         rdf:about="">
        <dc:format>image/svg+xml</dc:format>
        <dc:type
           rdf:resource="http://purl.org/dc/dcmitype/StillImage" />
        <dc:title></dc:title>
      </cc:Work>
    </rdf:RDF>
  </metadata>
  <g
     inkscape:label="Layer 1"
     inkscape:groupmode="layer"
     id="layer1"
     transform="translate(-282.42381,-82.851964)">
    <g
       id="g30"
       transform="matrix(0.26458333,0,0,0.26458333,282.29152,82.720507)"
       style="clip-rule:evenodd;fill-rule:evenodd;image-rendering:optimizeQuality;shape-rendering:geometricPrecision;text-rendering:geometricPrecision">
      <g
         id="g25">
        <rect
           style="fill:#ffffff;stroke-width:0.979592"
           id="rect14"
           width="47.020409"
           height="47.020405"
           x="0.98979491"
           y="0.98979872" />
      </g>
      <path
         style="fill:none;stroke:#000000;stroke-width:0.979592px;stroke-linecap:butt;stroke-linejoin:miter;stroke-opacity:1"
         d="M 0.98979536,0.98979499 H 48.010204 V 48.010203 H 0.98979536 V 0.49684439"
         id="path16"
         sodipodi:nodetypes="ccccc" />
    </g>
    <g
       id="g12"
       style="clip-rule:evenodd;fill-rule:evenodd;image-rendering:optimizeQuality;shape-rendering:geometricPrecision;text-rendering:geometricPrecision"
       transform="matrix(0.0410573,0,0,0.0410573,280.502,82.636034)" />
    <g
       aria-label="1.5"
       id="text839"
       style="font-style:normal;font-variant:normal;font-weight:normal;font-stretch:normal;font-size:7.05556px;line-height:1.25;font-family:Arial;-inkscape-font-specification:'Arial, Normal';font-variant-ligatures:normal;font-variant-caps:normal;font-variant-numeric:normal;font-variant-east-asian:normal;stroke-width:0.264583">
      <g
         aria-label="1.5"
         id="text861"
         style="font-size:10.5833px;line-height:1.25;font-family:Arial;-inkscape-font-specification:'Arial, Normal';stroke-width:0.0700042">
        <g
           aria-label="3"
           id="text892"
           style="font-size:10.5833px;line-height:1.25;font-family:Arial;-inkscape-font-specification:'Arial, Normal';stroke-width:0.0185219">
          <path
             d="m 287.78162,87.196952 0.37207,-0.04961 q 0.0641,0.316259 0.21704,0.456819 0.15503,0.138493 0.3762,0.138493 0.26252,0 0.44235,-0.181901 0.1819,-0.181901 0.1819,-0.450618 0,-0.256315 -0.16743,-0.42168 -0.16743,-0.167431 -0.42581,-0.167431 -0.10542,0 -0.26252,0.04134 l 0.0413,-0.326595 q 0.0372,0.0041 0.06,0.0041 0.23771,0 0.42788,-0.124023 0.19017,-0.124023 0.19017,-0.382405 0,-0.204639 -0.13849,-0.338997 -0.1385,-0.134359 -0.35761,-0.134359 -0.21704,0 -0.36173,0.136426 -0.14469,0.136425 -0.18603,0.409277 l -0.37207,-0.06615 q 0.0682,-0.374137 0.31005,-0.578776 0.24185,-0.206705 0.60152,-0.206705 0.24804,0 0.45682,0.107487 0.20877,0.105419 0.31832,0.289387 0.11162,0.183968 0.11162,0.390674 0,0.19637 -0.10542,0.3576 -0.10542,0.161231 -0.31212,0.256315 0.26872,0.06201 0.41754,0.258382 0.14883,0.194304 0.14883,0.487825 0,0.396875 -0.28939,0.673861 -0.28938,0.274918 -0.73173,0.274918 -0.39895,0 -0.66353,-0.237711 -0.26251,-0.237712 -0.29972,-0.615983 z"
             style="font-style:normal;font-variant:normal;font-weight:normal;font-stretch:normal;font-size:4.23333px;font-family:Arial;-inkscape-font-specification:'Arial, Normal';font-variant-ligatures:normal;font-variant-caps:normal;font-variant-numeric:normal;font-variant-east-asian:normal;stroke-width:0.0185219"
             id="path898" />
        </g>
        <g
           aria-label="2"
           id="text896"
           style="font-size:10.5833px;line-height:1.25;font-family:Arial;-inkscape-font-specification:'Arial, Normal';stroke-width:0.0185219">
          <path
             d="m 289.77545,93.185147 v 0.3576 h -2.00297 q -0.004,-0.134358 0.0434,-0.258381 0.0765,-0.204639 0.24392,-0.403076 0.16949,-0.198438 0.48782,-0.458887 0.49403,-0.405143 0.66766,-0.640787 0.17363,-0.237711 0.17363,-0.448551 0,-0.221175 -0.15916,-0.37207 -0.1571,-0.152962 -0.41134,-0.152962 -0.26872,0 -0.42995,0.16123 -0.16123,0.161231 -0.1633,0.446484 l -0.38241,-0.03927 q 0.0393,-0.42788 0.29559,-0.651122 0.25632,-0.225309 0.68833,-0.225309 0.43615,0 0.6904,0.241845 0.25425,0.241846 0.25425,0.599446 0,0.181901 -0.0744,0.357601 -0.0744,0.1757 -0.24804,0.370003 -0.17157,0.194303 -0.57258,0.5333 -0.33486,0.28112 -0.42994,0.382405 -0.0951,0.09922 -0.1571,0.200505 z"
             style="font-style:normal;font-variant:normal;font-weight:normal;font-stretch:normal;font-size:4.23333px;font-family:Arial;-inkscape-font-specification:'Arial, Normal';font-variant-ligatures:normal;font-variant-caps:normal;font-variant-numeric:normal;font-variant-east-asian:normal;stroke-width:0.0185219"
             id="path901" />
        </g>
      </g>
    </g>
  </g>
</svg>
