<?xml version="1.0" encoding="UTF-8" standalone="no"?>
<svg
   xmlns:dc="http://purl.org/dc/elements/1.1/"
   xmlns:cc="http://creativecommons.org/ns#"
   xmlns:rdf="http://www.w3.org/1999/02/22-rdf-syntax-ns#"
   xmlns:svg="http://www.w3.org/2000/svg"
   xmlns="http://www.w3.org/2000/svg"
   xmlns:sodipodi="http://sodipodi.sourceforge.net/DTD/sodipodi-0.dtd"
   xmlns:inkscape="http://www.inkscape.org/namespaces/inkscape"
   width="12.7mm"
   height="12.700834mm"
   viewBox="0 0 12.7 12.700834"
   version="1.1"
   id="svg38"
   inkscape:version="1.0.2-2 (e86c870879, 2021-01-15)"
   sodipodi:docname="manned_control_control.svg">
  <defs
     id="defs32" />
  <sodipodi:namedview
     id="base"
     pagecolor="#4f4f4f"
     bordercolor="#666666"
     borderopacity="1.0"
     inkscape:pageopacity="0"
     inkscape:pageshadow="2"
     inkscape:zoom="5.2370097"
     inkscape:cx="21.238658"
     inkscape:cy="31.533791"
     inkscape:document-units="mm"
     inkscape:current-layer="layer1"
     inkscape:document-rotation="0"
     showgrid="false"
     inkscape:pagecheckerboard="false"
     fit-margin-top="0"
     fit-margin-left="0"
     fit-margin-right="0"
     fit-margin-bottom="0"
     inkscape:showpageshadow="false"
     inkscape:window-width="1278"
     inkscape:window-height="1018"
     inkscape:window-x="-7"
     inkscape:window-y="0"
     inkscape:window-maximized="0" />
  <metadata
     id="metadata35">
    <rdf:RDF>
      <cc:Work
         rdf:about="">
        <dc:format>image/svg+xml</dc:format>
        <dc:type
           rdf:resource="http://purl.org/dc/dcmitype/StillImage" />
        <dc:title></dc:title>
      </cc:Work>
    </rdf:RDF>
  </metadata>
  <g
     inkscape:label="Layer 1"
     inkscape:groupmode="layer"
     id="layer1"
     transform="translate(-282.42381,-82.851964)">
    <g
       id="g30"
       transform="matrix(0.26458333,0,0,0.26458333,282.29152,82.720507)"
       style="clip-rule:evenodd;fill-rule:evenodd;image-rendering:optimizeQuality;shape-rendering:geometricPrecision;text-rendering:geometricPrecision">
      <g
         id="g25">
        <rect
           style="fill:#ffffff;stroke-width:0.979592"
           id="rect14"
           width="47.020409"
           height="47.020405"
           x="0.98979491"
           y="0.98979872" />
      </g>
      <path
         style="fill:none;stroke:#000000;stroke-width:0.979592px;stroke-linecap:butt;stroke-linejoin:miter;stroke-opacity:1"
         d="M 0.98979536,0.98979499 H 48.010204 V 48.010203 H 0.98979536 V 0.49684439"
         id="path16"
         sodipodi:nodetypes="ccccc" />
    </g>
    <g
       id="g12"
       style="clip-rule:evenodd;fill-rule:evenodd;image-rendering:optimizeQuality;shape-rendering:geometricPrecision;text-rendering:geometricPrecision"
       transform="matrix(0.0410573,0,0,0.0410573,280.502,82.636034)" />
    <g
       id="g8"
       style="clip-rule:evenodd;fill-rule:evenodd;image-rendering:optimizeQuality;shape-rendering:geometricPrecision;text-rendering:geometricPrecision"
       transform="matrix(0.02991993,0,0,0.02991993,284.81078,83.766162)">
      <path
         style="opacity:1"
         fill="#020202"
         d="m 144.5,144.5 c -0.06,-0.543 -0.393,-0.876 -1,-1 -1.329,23.163 -1.329,46.163 0,69 18.632,36.596 37.798,72.929 57.5,109 1.167,10.833 -3.667,15.667 -14.5,14.5 -1.59,-1.046 -3.09,-2.213 -4.5,-3.5 -16.246,-30.826 -32.746,-61.493 -49.5,-92 -17.326,30.646 -34.159,61.646 -50.5,93 -7.4719,4.979 -13.4719,3.646 -18,-4 -0.6667,-2.667 -0.6667,-5.333 0,-8 18.7454,-35.825 37.745,-71.492 57,-107 0.667,-23.667 0.667,-47.333 0,-71 -14.39,11.445 -29.2232,22.278 -44.5,32.5 -10.3015,0.017 -14.4682,-5.15 -12.5,-15.5 18.5615,-15.128 37.561,-29.795 57,-44 0.5,-6.325 0.666,-12.658 0.5,-19 C 108.852,93.6847 100.686,85.3514 97,72.5 93.8773,48.9082 103.711,33.7416 126.5,27 c 24.645,-1.0162 38.645,10.6505 42,35 -0.184,17.2228 -8.184,29.0562 -24,35.5 -1.164,6.307 -1.331,12.641 -0.5,19 16.899,13.199 34.065,26.032 51.5,38.5 7.143,5.666 7.81,12 2,19 -3.046,2.174 -6.38,2.841 -10,2 -14.492,-10.331 -28.825,-20.831 -43,-31.5 z"
         id="path6" />
    </g>
  </g>
</svg>
