<?xml version="1.0" encoding="UTF-8" standalone="no"?>
<svg
   xmlns:dc="http://purl.org/dc/elements/1.1/"
   xmlns:cc="http://creativecommons.org/ns#"
   xmlns:rdf="http://www.w3.org/1999/02/22-rdf-syntax-ns#"
   xmlns:svg="http://www.w3.org/2000/svg"
   xmlns="http://www.w3.org/2000/svg"
   xmlns:sodipodi="http://sodipodi.sourceforge.net/DTD/sodipodi-0.dtd"
   xmlns:inkscape="http://www.inkscape.org/namespaces/inkscape"
   width="12.7mm"
   height="12.700834mm"
   viewBox="0 0 12.7 12.700834"
   version="1.1"
   id="svg38"
   inkscape:version="1.0.2-2 (e86c870879, 2021-01-15)"
   sodipodi:docname="pipeline_control.svg">
  <defs
     id="defs32">
    <inkscape:path-effect
       effect="spiro"
       id="path-effect1621"
       is_visible="true"
       lpeversion="1" />
    <inkscape:path-effect
       effect="spiro"
       id="path-effect1617"
       is_visible="true"
       lpeversion="1" />
    <inkscape:path-effect
       effect="spiro"
       id="path-effect1613"
       is_visible="true"
       lpeversion="1" />
    <inkscape:path-effect
       effect="spiro"
       id="path-effect1609"
       is_visible="true"
       lpeversion="1" />
    <inkscape:path-effect
       effect="spiro"
       id="path-effect1604"
       is_visible="true"
       lpeversion="1" />
    <inkscape:path-effect
       effect="spiro"
       id="path-effect1581"
       is_visible="true"
       lpeversion="1" />
    <inkscape:path-effect
       effect="bspline"
       id="path-effect1577"
       is_visible="true"
       lpeversion="1"
       weight="33.333333"
       steps="2"
       helper_size="0"
       apply_no_weight="true"
       apply_with_weight="true"
       only_selected="false" />
  </defs>
  <sodipodi:namedview
     id="base"
     pagecolor="#4f4f4f"
     bordercolor="#666666"
     borderopacity="1.0"
     inkscape:pageopacity="0"
     inkscape:pageshadow="2"
     inkscape:zoom="5.2370097"
     inkscape:cx="51.649065"
     inkscape:cy="64.580311"
     inkscape:document-units="mm"
     inkscape:current-layer="layer1"
     inkscape:document-rotation="0"
     showgrid="false"
     inkscape:pagecheckerboard="false"
     fit-margin-top="0"
     fit-margin-left="0"
     fit-margin-right="0"
     fit-margin-bottom="0"
     inkscape:showpageshadow="false"
     inkscape:window-width="1278"
     inkscape:window-height="1018"
     inkscape:window-x="-7"
     inkscape:window-y="0"
     inkscape:window-maximized="0" />
  <metadata
     id="metadata35">
    <rdf:RDF>
      <cc:Work
         rdf:about="">
        <dc:format>image/svg+xml</dc:format>
        <dc:type
           rdf:resource="http://purl.org/dc/dcmitype/StillImage" />
        <dc:title></dc:title>
      </cc:Work>
    </rdf:RDF>
  </metadata>
  <g
     inkscape:label="Layer 1"
     inkscape:groupmode="layer"
     id="layer1"
     transform="translate(-282.42381,-82.851964)">
    <g
       id="g30"
       transform="matrix(0.26458333,0,0,0.26458333,282.29152,82.720507)"
       style="clip-rule:evenodd;fill-rule:evenodd;image-rendering:optimizeQuality;shape-rendering:geometricPrecision;text-rendering:geometricPrecision">
      <g
         id="g25">
        <rect
           style="fill:#ffffff;stroke-width:0.979592"
           id="rect14"
           width="47.020409"
           height="47.020405"
           x="0.98979491"
           y="0.98979872" />
      </g>
      <path
         style="fill:none;stroke:#000000;stroke-width:0.979592px;stroke-linecap:butt;stroke-linejoin:miter;stroke-opacity:1"
         d="M 0.98979536,0.98979499 H 48.010204 V 48.010203 H 0.98979536 V 0.49684439"
         id="path16"
         sodipodi:nodetypes="ccccc" />
    </g>
    <g
       id="g12"
       style="clip-rule:evenodd;fill-rule:evenodd;image-rendering:optimizeQuality;shape-rendering:geometricPrecision;text-rendering:geometricPrecision"
       transform="matrix(0.0410573,0,0,0.0410573,280.502,82.636034)" />
    <g
       id="g8"
       style="clip-rule:evenodd;fill-rule:evenodd;image-rendering:optimizeQuality;shape-rendering:geometricPrecision;text-rendering:geometricPrecision"
       transform="matrix(0.0310789,0,0,0.0310789,283.0723,83.360554)">
      <path
         style="opacity:1"
         fill="#020202"
         d="m 282.5,168.5 c 0.167,-21.336 0,-42.669 -0.5,-64 -0.717,0.544 -1.217,1.211 -1.5,2 -18.965,18.465 -37.799,37.132 -56.5,56 -0.333,28.667 -0.667,57.333 -1,86 -1.996,6.751 -6.496,9.584 -13.5,8.5 -3.928,-1.593 -6.428,-4.427 -7.5,-8.5 -0.333,-21 -0.667,-42 -1,-63 -19,19 -38,38 -57,57 -0.333,28.667 -0.667,57.333 -1,86 -1.996,6.751 -6.496,9.584 -13.5,8.5 -4.27,-1.27 -6.77,-4.104 -7.5,-8.5 -0.333,-21 -0.667,-42 -1,-63 -18.5,18.5 -37,37 -55.5,55.5 -9.4891,3.59 -15.1558,0.423 -17,-9.5 0.1794,-2.691 1.1794,-5.025 3,-7 18.021,-17.354 35.6877,-35.021 53,-53 0.543,-0.06 0.876,-0.393 1,-1 -20.9894,-1 -41.9894,-1.333 -63,-1 -5.4821,-1.319 -8.1488,-4.819 -8,-10.5 -0.3019,-4.732 1.6981,-8.065 6,-10 29.7526,-0.016 59.4193,-0.682 89,-2 18.535,-18.368 36.868,-36.868 55,-55.5 0.543,-0.06 0.876,-0.393 1,-1 -20.656,-1 -41.323,-1.333 -62,-1 -6.038,-1.033 -9.038,-4.7 -9,-11 0.174,-5.347 2.841,-8.847 8,-10.5 29,-0.333 58,-0.667 87,-1 18.847,-18.681 37.514,-37.514 56,-56.5 -21.326,-0.8331 -42.659,-1.3331 -64,-1.5 -5.827,-3.1328 -7.993,-7.9661 -6.5,-14.5 1.563,-3.2284 4.063,-5.3951 7.5,-6.5 29,-0.3333 58,-0.6667 87,-1 8.514,-8.3476 16.848,-16.8476 25,-25.5 6.061,-4.2968 11.561,-3.6301 16.5,2 1.483,3.2024 1.817,6.5357 1,10 -8.97,9.9704 -18.303,19.6371 -28,29 -0.333,29 -0.667,58 -1,87 -1.434,5.05 -4.767,7.383 -10,7 -5.681,0.149 -9.181,-2.518 -10.5,-8 z"
         id="path6" />
    </g>
  </g>
</svg>
