<?xml version="1.0" encoding="UTF-8" standalone="no"?>
<svg
   xmlns:dc="http://purl.org/dc/elements/1.1/"
   xmlns:cc="http://creativecommons.org/ns#"
   xmlns:rdf="http://www.w3.org/1999/02/22-rdf-syntax-ns#"
   xmlns:svg="http://www.w3.org/2000/svg"
   xmlns="http://www.w3.org/2000/svg"
   xmlns:sodipodi="http://sodipodi.sourceforge.net/DTD/sodipodi-0.dtd"
   xmlns:inkscape="http://www.inkscape.org/namespaces/inkscape"
   width="12.7mm"
   height="12.700834mm"
   viewBox="0 0 12.7 12.700834"
   version="1.1"
   id="svg38"
   inkscape:version="1.0.2-2 (e86c870879, 2021-01-15)"
   sodipodi:docname="power_line_control.svg">
  <defs
     id="defs32">
    <inkscape:path-effect
       effect="spiro"
       id="path-effect1621"
       is_visible="true"
       lpeversion="1" />
    <inkscape:path-effect
       effect="spiro"
       id="path-effect1617"
       is_visible="true"
       lpeversion="1" />
    <inkscape:path-effect
       effect="spiro"
       id="path-effect1613"
       is_visible="true"
       lpeversion="1" />
    <inkscape:path-effect
       effect="spiro"
       id="path-effect1609"
       is_visible="true"
       lpeversion="1" />
    <inkscape:path-effect
       effect="spiro"
       id="path-effect1604"
       is_visible="true"
       lpeversion="1" />
    <inkscape:path-effect
       effect="spiro"
       id="path-effect1581"
       is_visible="true"
       lpeversion="1" />
    <inkscape:path-effect
       effect="bspline"
       id="path-effect1577"
       is_visible="true"
       lpeversion="1"
       weight="33.333333"
       steps="2"
       helper_size="0"
       apply_no_weight="true"
       apply_with_weight="true"
       only_selected="false" />
  </defs>
  <sodipodi:namedview
     id="base"
     pagecolor="#4f4f4f"
     bordercolor="#666666"
     borderopacity="1.0"
     inkscape:pageopacity="0"
     inkscape:pageshadow="2"
     inkscape:zoom="5.2370097"
     inkscape:cx="51.649065"
     inkscape:cy="64.580311"
     inkscape:document-units="mm"
     inkscape:current-layer="layer1"
     inkscape:document-rotation="0"
     showgrid="false"
     inkscape:pagecheckerboard="false"
     fit-margin-top="0"
     fit-margin-left="0"
     fit-margin-right="0"
     fit-margin-bottom="0"
     inkscape:showpageshadow="false"
     inkscape:window-width="1278"
     inkscape:window-height="1018"
     inkscape:window-x="-7"
     inkscape:window-y="0"
     inkscape:window-maximized="0" />
  <metadata
     id="metadata35">
    <rdf:RDF>
      <cc:Work
         rdf:about="">
        <dc:format>image/svg+xml</dc:format>
        <dc:type
           rdf:resource="http://purl.org/dc/dcmitype/StillImage" />
        <dc:title></dc:title>
      </cc:Work>
    </rdf:RDF>
  </metadata>
  <g
     inkscape:label="Layer 1"
     inkscape:groupmode="layer"
     id="layer1"
     transform="translate(-282.42381,-82.851964)">
    <g
       id="g30"
       transform="matrix(0.26458333,0,0,0.26458333,282.29152,82.720507)"
       style="clip-rule:evenodd;fill-rule:evenodd;image-rendering:optimizeQuality;shape-rendering:geometricPrecision;text-rendering:geometricPrecision">
      <g
         id="g25">
        <rect
           style="fill:#ffffff;stroke-width:0.979592"
           id="rect14"
           width="47.020409"
           height="47.020405"
           x="0.98979491"
           y="0.98979872" />
      </g>
      <path
         style="fill:none;stroke:#000000;stroke-width:0.979592px;stroke-linecap:butt;stroke-linejoin:miter;stroke-opacity:1"
         d="M 0.98979536,0.98979499 H 48.010204 V 48.010203 H 0.98979536 V 0.49684439"
         id="path16"
         sodipodi:nodetypes="ccccc" />
    </g>
    <g
       id="g12"
       style="clip-rule:evenodd;fill-rule:evenodd;image-rendering:optimizeQuality;shape-rendering:geometricPrecision;text-rendering:geometricPrecision"
       transform="matrix(0.0410573,0,0,0.0410573,280.502,82.636034)" />
    <g
       id="g8"
       style="clip-rule:evenodd;fill-rule:evenodd;image-rendering:optimizeQuality;shape-rendering:geometricPrecision;text-rendering:geometricPrecision"
       transform="matrix(0.02308436,0,0,0.02308436,281.89032,83.561098)">
      <path
         style="opacity:1"
         fill="#030303"
         d="m 478.5,43.5 c 17.499,-0.6552 23.666,7.3448 18.5,24 -24.5,24.5 -49,49 -73.5,73.5 10.5,10.5 21,21 31.5,31.5 6.334,10.839 3.834,19.006 -7.5,24.5 -4.94,1.041 -9.606,0.374 -14,-2 -10.333,-10.333 -20.667,-20.667 -31,-31 -0.667,-0.667 -1.333,-0.667 -2,0 -26.667,26.667 -53.333,53.333 -80,80 11.197,10.863 22.03,22.029 32.5,33.5 4.492,10.184 1.659,17.684 -8.5,22.5 -4.94,1.041 -9.606,0.374 -14,-2 -10.514,-10.681 -21.181,-21.181 -32,-31.5 -27.153,26.653 -54.153,53.486 -81,80.5 10.167,10.167 20.333,20.333 30.5,30.5 6.683,9.217 5.517,17.383 -3.5,24.5 -5.845,2.248 -11.512,1.915 -17,-1 -10.514,-10.681 -21.181,-21.181 -32,-31.5 -24.486,23.986 -48.82,48.153 -73,72.5 -9.653,5.78 -17.487,3.946 -23.5,-5.5 -2.3728,-6.018 -1.7061,-11.685 2,-17 24.167,-24.167 48.333,-48.333 72.5,-72.5 -10.5,-10.5 -21,-21 -31.5,-31.5 -5.969,-10.759 -3.469,-18.926 7.5,-24.5 4.611,-1.007 8.945,-0.34 13,2 10.971,9.97 21.637,20.303 32,31 0.667,0.667 1.333,0.667 2,0 26.667,-26.667 53.333,-53.333 80,-80 -10.5,-10.5 -21,-21 -31.5,-31.5 -5.969,-10.759 -3.469,-18.926 7.5,-24.5 5.44,-1.174 10.44,-0.174 15,3 10.181,10.348 20.514,20.514 31,30.5 27.153,-26.653 54.153,-53.486 81,-80.5 -10.5,-10.5 -21,-21 -31.5,-31.5 -6.404,-13.0854 -2.57,-21.4187 11.5,-25 2.726,0.1816 5.393,0.6816 8,1.5 11.485,10.651 22.818,21.484 34,32.5 25.41,-25.4116 51.076,-50.4116 77,-75 z"
         id="path6" />
    </g>
  </g>
</svg>
