<?xml version="1.0" encoding="UTF-8" standalone="no"?>
<svg
   xmlns:dc="http://purl.org/dc/elements/1.1/"
   xmlns:cc="http://creativecommons.org/ns#"
   xmlns:rdf="http://www.w3.org/1999/02/22-rdf-syntax-ns#"
   xmlns:svg="http://www.w3.org/2000/svg"
   xmlns="http://www.w3.org/2000/svg"
   xmlns:sodipodi="http://sodipodi.sourceforge.net/DTD/sodipodi-0.dtd"
   xmlns:inkscape="http://www.inkscape.org/namespaces/inkscape"
   width="12.7mm"
   height="12.700834mm"
   viewBox="0 0 12.7 12.700834"
   version="1.1"
   id="svg38"
   inkscape:version="1.0.2-2 (e86c870879, 2021-01-15)"
   sodipodi:docname="river_control.svg">
  <defs
     id="defs32">
    <inkscape:path-effect
       effect="spiro"
       id="path-effect1621"
       is_visible="true"
       lpeversion="1" />
    <inkscape:path-effect
       effect="spiro"
       id="path-effect1617"
       is_visible="true"
       lpeversion="1" />
    <inkscape:path-effect
       effect="spiro"
       id="path-effect1613"
       is_visible="true"
       lpeversion="1" />
    <inkscape:path-effect
       effect="spiro"
       id="path-effect1609"
       is_visible="true"
       lpeversion="1" />
    <inkscape:path-effect
       effect="spiro"
       id="path-effect1604"
       is_visible="true"
       lpeversion="1" />
    <inkscape:path-effect
       effect="spiro"
       id="path-effect1581"
       is_visible="true"
       lpeversion="1" />
    <inkscape:path-effect
       effect="bspline"
       id="path-effect1577"
       is_visible="true"
       lpeversion="1"
       weight="33.333333"
       steps="2"
       helper_size="0"
       apply_no_weight="true"
       apply_with_weight="true"
       only_selected="false" />
  </defs>
  <sodipodi:namedview
     id="base"
     pagecolor="#4f4f4f"
     bordercolor="#666666"
     borderopacity="1.0"
     inkscape:pageopacity="0"
     inkscape:pageshadow="2"
     inkscape:zoom="5.2370097"
     inkscape:cx="18.799579"
     inkscape:cy="33.060255"
     inkscape:document-units="mm"
     inkscape:current-layer="layer1"
     inkscape:document-rotation="0"
     showgrid="false"
     inkscape:pagecheckerboard="false"
     fit-margin-top="0"
     fit-margin-left="0"
     fit-margin-right="0"
     fit-margin-bottom="0"
     inkscape:showpageshadow="false"
     inkscape:window-width="1278"
     inkscape:window-height="1018"
     inkscape:window-x="-7"
     inkscape:window-y="0"
     inkscape:window-maximized="0" />
  <metadata
     id="metadata35">
    <rdf:RDF>
      <cc:Work
         rdf:about="">
        <dc:format>image/svg+xml</dc:format>
        <dc:type
           rdf:resource="http://purl.org/dc/dcmitype/StillImage" />
        <dc:title></dc:title>
      </cc:Work>
    </rdf:RDF>
  </metadata>
  <g
     inkscape:label="Layer 1"
     inkscape:groupmode="layer"
     id="layer1"
     transform="translate(-282.42381,-82.851964)">
    <g
       id="g30"
       transform="matrix(0.26458333,0,0,0.26458333,282.29152,82.720507)"
       style="clip-rule:evenodd;fill-rule:evenodd;image-rendering:optimizeQuality;shape-rendering:geometricPrecision;text-rendering:geometricPrecision">
      <g
         id="g25">
        <rect
           style="fill:#ffffff;stroke-width:0.979592"
           id="rect14"
           width="47.020409"
           height="47.020405"
           x="0.98979491"
           y="0.98979872" />
      </g>
      <path
         style="fill:none;stroke:#000000;stroke-width:0.979592px;stroke-linecap:butt;stroke-linejoin:miter;stroke-opacity:1"
         d="M 0.98979536,0.98979499 H 48.010204 V 48.010203 H 0.98979536 V 0.49684439"
         id="path16"
         sodipodi:nodetypes="ccccc" />
    </g>
    <g
       id="g12"
       style="clip-rule:evenodd;fill-rule:evenodd;image-rendering:optimizeQuality;shape-rendering:geometricPrecision;text-rendering:geometricPrecision"
       transform="matrix(0.0410573,0,0,0.0410573,280.502,82.636034)" />
    <g
       id="g8"
       style="clip-rule:evenodd;fill-rule:evenodd;image-rendering:optimizeQuality;shape-rendering:geometricPrecision;text-rendering:geometricPrecision"
       transform="matrix(0.02730965,0,0,0.02730965,282.80489,83.691246)">
      <path
         style="opacity:1"
         fill="#020202"
         d="m 79.5,32.5 c 11.7879,-1.5294 18.7879,3.4706 21,15 -0.428,4.1203 -1.928,7.7869 -4.5,11 -6.7404,6.0699 -12.7404,12.7366 -18,20 -0.1188,7.2492 3.0479,12.7492 9.5,16.5 4.2824,0.9651 8.2824,0.2984 12,-2 20.059,-20.8058 42.726,-24.1391 68,-10 12.539,12.2919 17.039,27.125 13.5,44.5 -1.413,5.239 -3.413,10.239 -6,15 -4.667,6 -9.333,12 -14,18 -1.016,8.459 2.484,14.293 10.5,17.5 2,0.667 4,0.667 6,0 6.909,-6.077 14.242,-11.577 22,-16.5 20.522,-8.926 39.022,-5.926 55.5,9 12.544,19.243 12.544,38.576 0,58 -4.38,4.711 -8.38,9.711 -12,15 -0.119,7.249 3.048,12.749 9.5,16.5 2.667,0.667 5.333,0.667 8,0 6,-4.667 12,-9.333 18,-14 18.376,-10.303 36.376,-9.637 54,2 12.112,11.673 16.612,25.84 13.5,42.5 -0.899,5.264 -2.565,10.264 -5,15 -4.277,6.879 -9.277,13.212 -15,19 -1.247,10.095 3.087,16.429 13,19 2.992,-0.745 5.826,-1.912 8.5,-3.5 6.448,-7.455 13.782,-13.788 22,-19 13.357,-0.309 19.524,6.191 18.5,19.5 -9.049,16.105 -22.549,26.272 -40.5,30.5 -31.891,2.942 -48.891,-11.558 -51,-43.5 0.645,-13.956 6.145,-25.622 16.5,-35 2.062,-2.401 3.729,-5.067 5,-8 0.755,-2.803 0.422,-5.47 -1,-8 -2.5,-2.5 -5,-5 -7.5,-7.5 -2.866,-1.457 -5.866,-1.79 -9,-1 -7.104,6.438 -14.77,12.105 -23,17 -21.229,8.898 -39.729,5.065 -55.5,-11.5 -7.029,-11.729 -9.362,-24.395 -7,-38 1.271,-4.479 2.938,-8.812 5,-13 5,-6.333 10,-12.667 15,-19 0.667,-2.667 0.667,-5.333 0,-8 -2.128,-3.13 -4.628,-5.963 -7.5,-8.5 -3.202,-1.483 -6.536,-1.817 -10,-1 -5.623,3.955 -10.957,8.288 -16,13 -18.076,9.975 -36.076,9.975 -54,0 -11.182,-9.537 -16.516,-21.704 -16,-36.5 0.747,-14.493 6.58,-26.493 17.5,-36 1.586,-2.17 2.92,-4.504 4,-7 0.755,-2.803 0.422,-5.47 -1,-8 -3.249,-4.436 -7.415,-7.436 -12.5,-9 -6.958,1.82 -12.625,5.654 -17,11.5 -18.975,13.063 -38.3086,13.729 -58,2 C 51.583,103.524 46.7497,88.3574 50,70.5 55.5293,54.4732 65.3626,41.8065 79.5,32.5 Z"
         id="path6" />
    </g>
  </g>
</svg>
