<?xml version="1.0" encoding="UTF-8" standalone="no"?>
<svg
   xmlns:dc="http://purl.org/dc/elements/1.1/"
   xmlns:cc="http://creativecommons.org/ns#"
   xmlns:rdf="http://www.w3.org/1999/02/22-rdf-syntax-ns#"
   xmlns:svg="http://www.w3.org/2000/svg"
   xmlns="http://www.w3.org/2000/svg"
   xmlns:sodipodi="http://sodipodi.sourceforge.net/DTD/sodipodi-0.dtd"
   xmlns:inkscape="http://www.inkscape.org/namespaces/inkscape"
   width="12.7mm"
   height="12.700834mm"
   viewBox="0 0 12.7 12.700834"
   version="1.1"
   id="svg38"
   inkscape:version="1.0.2-2 (e86c870879, 2021-01-15)"
   sodipodi:docname="ruined_control.svg">
  <defs
     id="defs32">
    <inkscape:path-effect
       effect="spiro"
       id="path-effect1621"
       is_visible="true"
       lpeversion="1" />
    <inkscape:path-effect
       effect="spiro"
       id="path-effect1617"
       is_visible="true"
       lpeversion="1" />
    <inkscape:path-effect
       effect="spiro"
       id="path-effect1613"
       is_visible="true"
       lpeversion="1" />
    <inkscape:path-effect
       effect="spiro"
       id="path-effect1609"
       is_visible="true"
       lpeversion="1" />
    <inkscape:path-effect
       effect="spiro"
       id="path-effect1604"
       is_visible="true"
       lpeversion="1" />
    <inkscape:path-effect
       effect="spiro"
       id="path-effect1581"
       is_visible="true"
       lpeversion="1" />
    <inkscape:path-effect
       effect="bspline"
       id="path-effect1577"
       is_visible="true"
       lpeversion="1"
       weight="33.333333"
       steps="2"
       helper_size="0"
       apply_no_weight="true"
       apply_with_weight="true"
       only_selected="false" />
  </defs>
  <sodipodi:namedview
     id="base"
     pagecolor="#4f4f4f"
     bordercolor="#666666"
     borderopacity="1.0"
     inkscape:pageopacity="0"
     inkscape:pageshadow="2"
     inkscape:zoom="7.4062501"
     inkscape:cx="27.104885"
     inkscape:cy="24.786969"
     inkscape:document-units="mm"
     inkscape:current-layer="layer1"
     inkscape:document-rotation="0"
     showgrid="false"
     inkscape:pagecheckerboard="false"
     fit-margin-top="0"
     fit-margin-left="0"
     fit-margin-right="0"
     fit-margin-bottom="0"
     inkscape:showpageshadow="false"
     inkscape:window-width="1278"
     inkscape:window-height="1018"
     inkscape:window-x="-7"
     inkscape:window-y="0"
     inkscape:window-maximized="0" />
  <metadata
     id="metadata35">
    <rdf:RDF>
      <cc:Work
         rdf:about="">
        <dc:format>image/svg+xml</dc:format>
        <dc:type
           rdf:resource="http://purl.org/dc/dcmitype/StillImage" />
        <dc:title></dc:title>
      </cc:Work>
    </rdf:RDF>
  </metadata>
  <g
     inkscape:label="Layer 1"
     inkscape:groupmode="layer"
     id="layer1"
     transform="translate(-282.42381,-82.851964)">
    <g
       id="g30"
       transform="matrix(0.26458333,0,0,0.26458333,282.29152,82.720507)"
       style="clip-rule:evenodd;fill-rule:evenodd;image-rendering:optimizeQuality;shape-rendering:geometricPrecision;text-rendering:geometricPrecision">
      <g
         id="g25">
        <rect
           style="fill:#ffffff;stroke-width:0.979592"
           id="rect14"
           width="47.020409"
           height="47.020405"
           x="0.98979491"
           y="0.98979872" />
      </g>
      <path
         style="fill:none;stroke:#000000;stroke-width:0.979592px;stroke-linecap:butt;stroke-linejoin:miter;stroke-opacity:1"
         d="M 0.98979536,0.98979499 H 48.010204 V 48.010203 H 0.98979536 V 0.49684439"
         id="path16"
         sodipodi:nodetypes="ccccc" />
    </g>
    <g
       id="g12"
       style="clip-rule:evenodd;fill-rule:evenodd;image-rendering:optimizeQuality;shape-rendering:geometricPrecision;text-rendering:geometricPrecision"
       transform="matrix(0.0410573,0,0,0.0410573,280.502,82.636034)" />
    <g
       id="g8"
       style="clip-rule:evenodd;fill-rule:evenodd;image-rendering:optimizeQuality;shape-rendering:geometricPrecision;text-rendering:geometricPrecision"
       transform="matrix(0.038575,0,0,0.038575,281.61694,82.576386)">
      <path
         style="opacity:1"
         fill="#040404"
         d="m 218.5,186.5 c 17.346,0.333 34.679,0 52,-1 -0.124,-0.607 -0.457,-0.94 -1,-1 -29.656,-32.826 -61.989,-62.66 -97,-89.5 -13.102,-9.2192 -27.102,-16.8859 -42,-23 -9.608,-4.0239 -19.275,-4.3572 -29,-1 -8.5327,7.909 -13.0327,17.7423 -13.5,29.5 -0.3333,62 -0.6667,124 -1,186 -3.5882,7.933 -9.4215,10.1 -17.5,6.5 -1.9875,-1.319 -3.1541,-3.152 -3.5,-5.5 -0.6667,-61.333 -0.6667,-122.667 0,-184 7.3091,-48.6503 34.142,-64.817 80.5,-48.5 22.877,10.9284 43.877,24.5951 63,41 25.771,22.436 50.271,46.269 73.5,71.5 0.333,-15.667 0.667,-31.333 1,-47 6.583,-10.267 13.583,-10.6 21,-1 0.5,29.331 0.667,58.665 0.5,88 -29.335,0.167 -58.669,0 -88,-0.5 -5.677,-3.636 -7.51,-8.803 -5.5,-15.5 1.777,-2.29 3.944,-3.957 6.5,-5 z"
         id="path6" />
    </g>
  </g>
</svg>
