<?xml version="1.0" encoding="UTF-8" standalone="no"?>
<svg
   xmlns:dc="http://purl.org/dc/elements/1.1/"
   xmlns:cc="http://creativecommons.org/ns#"
   xmlns:rdf="http://www.w3.org/1999/02/22-rdf-syntax-ns#"
   xmlns:svg="http://www.w3.org/2000/svg"
   xmlns="http://www.w3.org/2000/svg"
   xmlns:sodipodi="http://sodipodi.sourceforge.net/DTD/sodipodi-0.dtd"
   xmlns:inkscape="http://www.inkscape.org/namespaces/inkscape"
   width="12.7mm"
   height="12.700834mm"
   viewBox="0 0 12.7 12.700834"
   version="1.1"
   id="svg38"
   inkscape:version="1.0.2-2 (e86c870879, 2021-01-15)"
   sodipodi:docname="size.svg">
  <defs
     id="defs32" />
  <sodipodi:namedview
     id="base"
     pagecolor="#4f4f4f"
     bordercolor="#666666"
     borderopacity="1.0"
     inkscape:pageopacity="0"
     inkscape:pageshadow="2"
     inkscape:zoom="3.959798"
     inkscape:cx="9.8320315"
     inkscape:cy="28.453479"
     inkscape:document-units="mm"
     inkscape:current-layer="text839"
     inkscape:document-rotation="0"
     showgrid="false"
     inkscape:pagecheckerboard="false"
     fit-margin-top="0"
     fit-margin-left="0"
     fit-margin-right="0"
     fit-margin-bottom="0"
     inkscape:showpageshadow="false"
     inkscape:window-width="1306"
     inkscape:window-height="1018"
     inkscape:window-x="-7"
     inkscape:window-y="0"
     inkscape:window-maximized="0" />
  <metadata
     id="metadata35">
    <rdf:RDF>
      <cc:Work
         rdf:about="">
        <dc:format>image/svg+xml</dc:format>
        <dc:type
           rdf:resource="http://purl.org/dc/dcmitype/StillImage" />
        <dc:title></dc:title>
      </cc:Work>
    </rdf:RDF>
  </metadata>
  <g
     inkscape:label="Layer 1"
     inkscape:groupmode="layer"
     id="layer1"
     transform="translate(-282.42381,-82.851964)">
    <g
       id="g30"
       transform="matrix(0.26458333,0,0,0.26458333,282.29152,82.720507)"
       style="clip-rule:evenodd;fill-rule:evenodd;image-rendering:optimizeQuality;shape-rendering:geometricPrecision;text-rendering:geometricPrecision">
      <g
         id="g25">
        <rect
           style="fill:#ffffff;stroke-width:0.979592"
           id="rect14"
           width="47.020409"
           height="47.020405"
           x="0.98979491"
           y="0.98979872" />
      </g>
      <path
         style="fill:none;stroke:#000000;stroke-width:0.979592px;stroke-linecap:butt;stroke-linejoin:miter;stroke-opacity:1"
         d="M 0.98979536,0.98979499 H 48.010204 V 48.010203 H 0.98979536 V 0.49684439"
         id="path16"
         sodipodi:nodetypes="ccccc" />
    </g>
    <g
       id="g12"
       style="clip-rule:evenodd;fill-rule:evenodd;image-rendering:optimizeQuality;shape-rendering:geometricPrecision;text-rendering:geometricPrecision"
       transform="matrix(0.0410573,0,0,0.0410573,280.502,82.636034)" />
    <g
       aria-label="1.5"
       id="text839"
       style="font-style:normal;font-variant:normal;font-weight:normal;font-stretch:normal;font-size:7.05556px;line-height:1.25;font-family:Arial;-inkscape-font-specification:'Arial, Normal';font-variant-ligatures:normal;font-variant-caps:normal;font-variant-numeric:normal;font-variant-east-asian:normal;stroke-width:0.264583">
      <g
         aria-label="5x5"
         id="text850"
         style="font-style:normal;font-variant:normal;font-weight:normal;font-stretch:normal;font-size:5.99722px;line-height:1.25;font-family:Arial;-inkscape-font-specification:'Arial, Normal';font-variant-ligatures:normal;font-variant-caps:normal;font-variant-numeric:normal;font-variant-east-asian:normal;stroke-width:0.0700042">
        <path
           d="m 284.18366,90.15848 0.55346,-0.04685 q 0.0615,0.404109 0.28404,0.609093 0.22549,0.202054 0.54174,0.202054 0.38069,0 0.64424,-0.286976 0.26355,-0.286976 0.26355,-0.761366 0,-0.450963 -0.25477,-0.711584 -0.25183,-0.260621 -0.6618,-0.260621 -0.25476,0 -0.45975,0.117133 -0.20498,0.114205 -0.32211,0.298689 l -0.49489,-0.06442 0.41582,-2.205032 h 2.13475 v 0.503672 h -1.71307 l -0.23134,1.153762 q 0.38654,-0.269406 0.81115,-0.269406 0.56224,0 0.94878,0.389468 0.38654,0.389468 0.38654,1.001489 0,0.582738 -0.33969,1.007345 -0.41289,0.521243 -1.12741,0.521243 -0.58566,0 -0.95756,-0.327973 -0.36897,-0.327973 -0.42168,-0.869714 z"
           style="font-style:normal;font-variant:normal;font-weight:normal;font-stretch:normal;font-size:5.99722px;font-family:Arial;-inkscape-font-specification:'Arial, Normal';font-variant-ligatures:normal;font-variant-caps:normal;font-variant-numeric:normal;font-variant-east-asian:normal;stroke-width:0.0700042"
           id="path852" />
        <path
           d="m 287.31405,91.282959 1.13619,-1.616438 -1.05127,-1.493449 h 0.65887 l 0.47732,0.729155 q 0.1347,0.207911 0.2167,0.348471 0.12884,-0.19327 0.23719,-0.342615 l 0.52417,-0.735011 h 0.62959 l -1.07469,1.464165 1.15669,1.645722 h -0.64716 l -0.63838,-0.966349 -0.16984,-0.260621 -0.81701,1.22697 z"
           style="font-style:normal;font-variant:normal;font-weight:normal;font-stretch:normal;font-size:5.99722px;font-family:Arial;-inkscape-font-specification:'Arial, Normal';font-variant-ligatures:normal;font-variant-caps:normal;font-variant-numeric:normal;font-variant-east-asian:normal;stroke-width:0.0700042"
           id="path854" />
        <path
           d="m 290.51764,90.15848 0.55345,-0.04685 q 0.0615,0.404109 0.28405,0.609093 0.22548,0.202054 0.54174,0.202054 0.38069,0 0.64424,-0.286976 0.26354,-0.286976 0.26354,-0.761366 0,-0.450963 -0.25476,-0.711584 -0.25184,-0.260621 -0.6618,-0.260621 -0.25477,0 -0.45975,0.117133 -0.20498,0.114205 -0.32212,0.298689 l -0.49488,-0.06442 0.41582,-2.205032 h 2.13475 v 0.503672 h -1.71307 l -0.23134,1.153762 q 0.38654,-0.269406 0.81115,-0.269406 0.56224,0 0.94878,0.389468 0.38654,0.389468 0.38654,1.001489 0,0.582738 -0.33969,1.007345 -0.41289,0.521243 -1.12741,0.521243 -0.58566,0 -0.95756,-0.327973 -0.36897,-0.327973 -0.42168,-0.869714 z"
           style="font-style:normal;font-variant:normal;font-weight:normal;font-stretch:normal;font-size:5.99722px;font-family:Arial;-inkscape-font-specification:'Arial, Normal';font-variant-ligatures:normal;font-variant-caps:normal;font-variant-numeric:normal;font-variant-east-asian:normal;stroke-width:0.0700042"
           id="path856" />
      </g>
    </g>
  </g>
</svg>
