<?xml version="1.0" encoding="UTF-8" standalone="no"?>
<svg
   xmlns:dc="http://purl.org/dc/elements/1.1/"
   xmlns:cc="http://creativecommons.org/ns#"
   xmlns:rdf="http://www.w3.org/1999/02/22-rdf-syntax-ns#"
   xmlns:svg="http://www.w3.org/2000/svg"
   xmlns="http://www.w3.org/2000/svg"
   xmlns:sodipodi="http://sodipodi.sourceforge.net/DTD/sodipodi-0.dtd"
   xmlns:inkscape="http://www.inkscape.org/namespaces/inkscape"
   width="103.62203mm"
   height="13.662647mm"
   viewBox="0 0 103.62203 13.662647"
   version="1.1"
   id="svg1344"
   inkscape:version="1.0.2-2 (e86c870879, 2021-01-15)"
   sodipodi:docname="special6_control.svg">
  <defs
     id="defs1338" />
  <sodipodi:namedview
     id="base"
     pagecolor="#ffffff"
     bordercolor="#666666"
     borderopacity="1.0"
     inkscape:pageopacity="0.0"
     inkscape:pageshadow="2"
     inkscape:zoom="1.4"
     inkscape:cx="214.26092"
     inkscape:cy="-29.323479"
     inkscape:document-units="mm"
     inkscape:current-layer="layer1"
     inkscape:document-rotation="0"
     showgrid="false"
     fit-margin-top="0"
     fit-margin-left="0"
     fit-margin-right="0"
     fit-margin-bottom="0"
     inkscape:pagecheckerboard="true"
     inkscape:window-width="1346"
     inkscape:window-height="1041"
     inkscape:window-x="182"
     inkscape:window-y="0"
     inkscape:window-maximized="0" />
  <metadata
     id="metadata1341">
    <rdf:RDF>
      <cc:Work
         rdf:about="">
        <dc:format>image/svg+xml</dc:format>
        <dc:type
           rdf:resource="http://purl.org/dc/dcmitype/StillImage" />
        <dc:title />
      </cc:Work>
    </rdf:RDF>
  </metadata>
  <g
     inkscape:label="Layer 1"
     inkscape:groupmode="layer"
     id="layer1"
     transform="translate(-107.69493,-80.859153)">
    <rect
       style="fill:#ffffff;fill-rule:evenodd;stroke-width:0.264583;fill-opacity:1"
       id="rect1958"
       width="103.54189"
       height="13.062947"
       x="107.77507"
       y="81.159004" />
    <path
       style="display:inline;fill:none;stroke:#000000;stroke-width:0.5997;stroke-linecap:butt;stroke-linejoin:miter;stroke-miterlimit:4;stroke-dasharray:none;stroke-opacity:1"
       d="M 107.77507,81.159003 H 211.15668"
       id="path877" />
    <path
       style="display:inline;fill:none;stroke:#000000;stroke-width:0.6;stroke-linecap:butt;stroke-linejoin:miter;stroke-miterlimit:4;stroke-dasharray:none;stroke-opacity:1"
       d="M 107.69493,94.22195 H 211.31696"
       id="path879" />
    <g
       aria-label="60 m"
       id="text944-3-3-66-98-83-1"
       style="font-style:normal;font-variant:normal;font-weight:bold;font-stretch:normal;font-size:8.03932px;line-height:1.25;font-family:Arial;-inkscape-font-specification:'Arial, Bold';font-variant-ligatures:normal;font-variant-caps:normal;font-variant-numeric:normal;font-variant-east-asian:normal;display:inline;fill:#000000;fill-opacity:1;stroke:none;stroke-width:0.317341">
      <path
         d="m 155.23529,85.836496 -0.87537,0.117764 q -0.0628,-0.643774 -0.51424,-0.643774 -0.29441,0 -0.49068,0.321887 -0.19235,0.321887 -0.24338,1.299324 0.1688,-0.243378 0.37685,-0.365067 0.20804,-0.121689 0.45927,-0.121689 0.55349,0 0.96566,0.518159 0.41218,0.514234 0.41218,1.369982 0,0.910704 -0.43573,1.428864 -0.43572,0.518159 -1.0795,0.518159 -0.70658,0 -1.17371,-0.671252 -0.4632,-0.675177 -0.4632,-2.23358 0,-1.581957 0.48283,-2.276761 0.48283,-0.694805 1.24044,-0.694805 0.52209,0 0.8793,0.357216 0.36114,0.353291 0.45928,1.075573 z m -2.04516,2.406301 q 0,0.545637 0.2002,0.83612 0.20412,0.286558 0.4632,0.286558 0.25123,0 0.4161,-0.239452 0.16879,-0.239453 0.16879,-0.78509 0,-0.565265 -0.18057,-0.824344 -0.18057,-0.25908 -0.4475,-0.25908 -0.25908,0 -0.43965,0.247303 -0.18057,0.247304 -0.18057,0.737985 z"
         style="font-style:normal;font-variant:normal;font-weight:bold;font-stretch:condensed;font-size:8.03932px;font-family:Arial;-inkscape-font-specification:'Arial, Bold Condensed';font-variant-ligatures:normal;font-variant-caps:normal;font-variant-numeric:normal;font-variant-east-asian:normal;stroke-width:0.317341"
         id="path846" />
      <path
         d="m 157.36681,84.403707 q 0.68695,0 1.1109,0.65555 0.42395,0.651625 0.42395,2.284612 0,1.629061 -0.42395,2.284611 -0.42395,0.651625 -1.10697,0.651625 -0.68696,0 -1.11091,-0.647699 -0.42395,-0.647699 -0.42395,-2.300313 0,-1.621211 0.42395,-2.272836 0.42395,-0.65555 1.10698,-0.65555 z m 0,0.91463 q -0.26693,0 -0.42787,0.353291 -0.15702,0.35329 -0.15702,1.672241 0,1.318951 0.15702,1.672241 0.16094,0.349365 0.42787,0.349365 0.27086,0 0.42787,-0.35329 0.15702,-0.353291 0.15702,-1.668316 0,-1.318951 -0.15702,-1.672241 -0.15701,-0.353291 -0.42787,-0.353291 z"
         style="font-style:normal;font-variant:normal;font-weight:bold;font-stretch:condensed;font-size:8.03932px;font-family:Arial;-inkscape-font-specification:'Arial, Bold Condensed';font-variant-ligatures:normal;font-variant-caps:normal;font-variant-numeric:normal;font-variant-east-asian:normal;stroke-width:0.317341"
         id="path848" />
      <path
         d="m 161.46105,86.013142 h 0.8322 v 0.56919 q 0.22375,-0.333663 0.49068,-0.498532 0.26693,-0.164869 0.57704,-0.164869 0.32974,0 0.56919,0.164869 0.24338,0.164869 0.39647,0.498532 0.22768,-0.333663 0.48676,-0.498532 0.263,-0.164869 0.55741,-0.164869 0.34937,0 0.60059,0.168794 0.25516,0.164869 0.3847,0.47498 0.13346,0.31011 0.13346,0.953884 v 2.66538 h -0.90677 v -2.382748 q 0,-0.624146 -0.10992,-0.82827 -0.10991,-0.208049 -0.36899,-0.208049 -0.30226,0 -0.48676,0.290484 -0.18449,0.286557 -0.18449,1.126604 v 2.001979 h -0.90678 v -2.284612 q 0,-0.679102 -0.0746,-0.875375 -0.0981,-0.25908 -0.39647,-0.25908 -0.2002,0 -0.369,0.133466 -0.16879,0.133465 -0.24337,0.392545 -0.0746,0.255154 -0.0746,0.867524 v 2.025532 h -0.90678 z"
         style="font-style:normal;font-variant:normal;font-weight:bold;font-stretch:condensed;font-size:8.03932px;font-family:Arial;-inkscape-font-specification:'Arial, Bold Condensed';font-variant-ligatures:normal;font-variant-caps:normal;font-variant-numeric:normal;font-variant-east-asian:normal;stroke-width:0.317341"
         id="path850" />
    </g>
    <path
       style="display:inline;fill:none;stroke:#000000;stroke-width:0.565;stroke-linecap:round;stroke-linejoin:miter;stroke-miterlimit:4;stroke-dasharray:none;stroke-opacity:1"
       d="m 118.73202,87.771717 h 7.73906"
       id="path2284" />
    <path
       style="display:inline;fill:none;stroke:#000000;stroke-width:0.565;stroke-linecap:round;stroke-linejoin:miter;stroke-miterlimit:4;stroke-dasharray:none;stroke-opacity:1"
       d="m 128.38931,87.80479 h 7.60677"
       id="path2286" />
    <path
       style="display:inline;fill:none;stroke:#000000;stroke-width:0.565;stroke-linecap:round;stroke-linejoin:miter;stroke-miterlimit:4;stroke-dasharray:none;stroke-opacity:1"
       d="m 138.14582,87.771717 h 7.80521"
       id="path2288" />
    <path
       style="display:inline;fill:none;stroke:#000000;stroke-width:0.565;stroke-linecap:round;stroke-linejoin:round;stroke-miterlimit:4;stroke-dasharray:none;stroke-opacity:1"
       d="m 195.59348,83.306874 4.16719,4.464843 -4.13412,4.431771"
       id="path2290" />
    <path
       style="display:inline;fill:none;stroke:#000000;stroke-width:0.565;stroke-linecap:round;stroke-linejoin:miter;stroke-miterlimit:4;stroke-dasharray:none;stroke-opacity:1"
       d="m 199.76067,87.771717 h -7.17683"
       id="path2292" />
    <path
       style="display:inline;fill:none;stroke:#000000;stroke-width:0.565;stroke-linecap:round;stroke-linejoin:miter;stroke-miterlimit:4;stroke-dasharray:none;stroke-opacity:1"
       d="m 190.50025,87.80479 h -7.67292"
       id="path2294" />
    <path
       style="display:inline;fill:none;stroke:#000000;stroke-width:0.565;stroke-linecap:round;stroke-linejoin:miter;stroke-miterlimit:4;stroke-dasharray:none;stroke-opacity:1"
       d="m 180.9091,87.771717 h -7.83828"
       id="path2296" />
    <path
       style="display:inline;fill:none;stroke:#000000;stroke-width:0.565;stroke-linecap:round;stroke-linejoin:round;stroke-miterlimit:4;stroke-dasharray:none;stroke-opacity:1"
       d="m 204.8539,83.538384 3.70431,6.416061 h -7.47463 z"
       id="path2298" />
    <path
       style="fill:none;stroke:#000000;stroke-width:0.6;stroke-linecap:butt;stroke-linejoin:miter;stroke-opacity:1;stroke-miterlimit:4;stroke-dasharray:none"
       d="m 107.77507,81.159003 -0.0801,13.062947"
       id="path1952" />
    <path
       style="fill:none;stroke:#000000;stroke-width:0.6;stroke-linecap:butt;stroke-linejoin:miter;stroke-opacity:1;stroke-miterlimit:4;stroke-dasharray:none"
       d="m 211.15668,81.159003 0.16028,13.062947"
       id="path1954" />
    <circle
       style="display:inline;fill:none;stroke:#000000;stroke-width:0.542;stroke-linecap:round;stroke-linejoin:round;stroke-miterlimit:4;stroke-dasharray:none;stroke-opacity:1"
       id="path2077-26-7-4-0"
       cx="114.21503"
       cy="87.639099"
       r="4.459846" />
  </g>
</svg>
