<?xml version="1.0" encoding="UTF-8" standalone="no"?>
<svg
   xmlns:dc="http://purl.org/dc/elements/1.1/"
   xmlns:cc="http://creativecommons.org/ns#"
   xmlns:rdf="http://www.w3.org/1999/02/22-rdf-syntax-ns#"
   xmlns:svg="http://www.w3.org/2000/svg"
   xmlns="http://www.w3.org/2000/svg"
   xmlns:sodipodi="http://sodipodi.sourceforge.net/DTD/sodipodi-0.dtd"
   xmlns:inkscape="http://www.inkscape.org/namespaces/inkscape"
   width="103.62203mm"
   height="13.662647mm"
   viewBox="0 0 103.62203 13.662647"
   version="1.1"
   id="svg1344"
   inkscape:version="1.0.2-2 (e86c870879, 2021-01-15)"
   sodipodi:docname="special3_control.svg">
  <defs
     id="defs1338" />
  <sodipodi:namedview
     id="base"
     pagecolor="#ffffff"
     bordercolor="#666666"
     borderopacity="1.0"
     inkscape:pageopacity="0.0"
     inkscape:pageshadow="2"
     inkscape:zoom="1.4"
     inkscape:cx="214.26092"
     inkscape:cy="-29.323479"
     inkscape:document-units="mm"
     inkscape:current-layer="layer1"
     inkscape:document-rotation="0"
     showgrid="false"
     fit-margin-top="0"
     fit-margin-left="0"
     fit-margin-right="0"
     fit-margin-bottom="0"
     inkscape:pagecheckerboard="true"
     inkscape:window-width="1346"
     inkscape:window-height="1041"
     inkscape:window-x="182"
     inkscape:window-y="0"
     inkscape:window-maximized="0" />
  <metadata
     id="metadata1341">
    <rdf:RDF>
      <cc:Work
         rdf:about="">
        <dc:format>image/svg+xml</dc:format>
        <dc:type
           rdf:resource="http://purl.org/dc/dcmitype/StillImage" />
        <dc:title />
      </cc:Work>
    </rdf:RDF>
  </metadata>
  <g
     inkscape:label="Layer 1"
     inkscape:groupmode="layer"
     id="layer1"
     transform="translate(-107.69493,-80.859153)">
    <rect
       style="fill:#ffffff;fill-rule:evenodd;stroke-width:0.264583;fill-opacity:1"
       id="rect1958"
       width="103.54189"
       height="13.062947"
       x="107.77507"
       y="81.159004" />
    <path
       style="display:inline;fill:none;stroke:#000000;stroke-width:0.5997;stroke-linecap:butt;stroke-linejoin:miter;stroke-miterlimit:4;stroke-dasharray:none;stroke-opacity:1"
       d="M 107.77507,81.159003 H 211.15668"
       id="path877" />
    <path
       style="display:inline;fill:none;stroke:#000000;stroke-width:0.6;stroke-linecap:butt;stroke-linejoin:miter;stroke-miterlimit:4;stroke-dasharray:none;stroke-opacity:1"
       d="M 107.69493,94.22195 H 211.31696"
       id="path879" />
    <g
       aria-label="80 m"
       id="text944-3-3-66-98-83-1"
       style="font-style:normal;font-variant:normal;font-weight:bold;font-stretch:normal;font-size:8.03932px;line-height:1.25;font-family:Arial;-inkscape-font-specification:'Arial, Bold';font-variant-ligatures:normal;font-variant-caps:normal;font-variant-numeric:normal;font-variant-east-asian:normal;display:inline;fill:#000000;fill-opacity:1;stroke:none;stroke-width:0.317341">
      <path
         d="m 152.5727,87.076938 q -0.33366,-0.172719 -0.50245,-0.471054 -0.1688,-0.298334 -0.1688,-0.718357 0,-0.679102 0.3847,-1.079498 0.38469,-0.404322 1.03631,-0.404322 0.69088,0 1.05203,0.4318 0.36114,0.427874 0.36114,1.044169 0,0.420023 -0.17665,0.730134 -0.17272,0.306185 -0.47498,0.467128 0.40432,0.196273 0.60452,0.553489 0.2002,0.35329 0.2002,0.871449 0,0.533862 -0.2002,0.942108 -0.19627,0.408247 -0.54564,0.624147 -0.34936,0.215899 -0.78509,0.215899 -0.68302,0 -1.13053,-0.471054 -0.44357,-0.474979 -0.44357,-1.275771 0,-0.518159 0.20412,-0.891077 0.20413,-0.372917 0.58489,-0.56919 z m 0.1845,-1.110902 q 0,0.337589 0.15702,0.51816 0.16094,0.18057 0.40432,0.18057 0.2473,0 0.40825,-0.18057 0.16094,-0.180571 0.16094,-0.51816 0,-0.325812 -0.16094,-0.506383 -0.15702,-0.18057 -0.39647,-0.18057 -0.25123,0 -0.41218,0.184496 -0.16094,0.18057 -0.16094,0.502457 z m -0.0824,2.465182 q 0,0.463203 0.19627,0.714432 0.19627,0.251229 0.47105,0.251229 0.27478,0 0.45928,-0.239453 0.18842,-0.239452 0.18842,-0.718357 0,-0.412172 -0.19235,-0.651624 -0.18842,-0.239453 -0.46712,-0.239453 -0.27479,0 -0.46713,0.243378 -0.18842,0.239453 -0.18842,0.639848 z"
         style="font-style:normal;font-variant:normal;font-weight:bold;font-stretch:condensed;font-size:8.03932px;font-family:Arial;-inkscape-font-specification:'Arial, Bold Condensed';font-variant-ligatures:normal;font-variant-caps:normal;font-variant-numeric:normal;font-variant-east-asian:normal;stroke-width:0.317341"
         id="path846" />
      <path
         d="m 156.98883,84.403707 q 0.68696,0 1.11091,0.65555 0.42395,0.651625 0.42395,2.284612 0,1.629061 -0.42395,2.284611 -0.42395,0.651625 -1.10698,0.651625 -0.68695,0 -1.1109,-0.647699 -0.42395,-0.647699 -0.42395,-2.300313 0,-1.621211 0.42395,-2.272836 0.42395,-0.65555 1.10697,-0.65555 z m 0,0.91463 q -0.26693,0 -0.42787,0.353291 -0.15702,0.35329 -0.15702,1.672241 0,1.318951 0.15702,1.672241 0.16094,0.349365 0.42787,0.349365 0.27086,0 0.42788,-0.35329 0.15702,-0.353291 0.15702,-1.668316 0,-1.318951 -0.15702,-1.672241 -0.15702,-0.353291 -0.42788,-0.353291 z"
         style="font-style:normal;font-variant:normal;font-weight:bold;font-stretch:condensed;font-size:8.03932px;font-family:Arial;-inkscape-font-specification:'Arial, Bold Condensed';font-variant-ligatures:normal;font-variant-caps:normal;font-variant-numeric:normal;font-variant-east-asian:normal;stroke-width:0.317341"
         id="path848" />
      <path
         d="m 161.08308,86.013142 h 0.83219 v 0.56919 q 0.22375,-0.333663 0.49068,-0.498532 0.26693,-0.164869 0.57705,-0.164869 0.32973,0 0.56919,0.164869 0.24337,0.164869 0.39647,0.498532 0.22767,-0.333663 0.48675,-0.498532 0.26301,-0.164869 0.55742,-0.164869 0.34936,0 0.60059,0.168794 0.25515,0.164869 0.38469,0.47498 0.13347,0.31011 0.13347,0.953884 v 2.66538 h -0.90678 v -2.382748 q 0,-0.624146 -0.10991,-0.82827 -0.10992,-0.208049 -0.369,-0.208049 -0.30225,0 -0.48675,0.290484 -0.1845,0.286557 -0.1845,1.126604 v 2.001979 h -0.90678 v -2.284612 q 0,-0.679102 -0.0746,-0.875375 -0.0981,-0.25908 -0.39647,-0.25908 -0.2002,0 -0.36899,0.133466 -0.1688,0.133465 -0.24338,0.392545 -0.0746,0.255154 -0.0746,0.867524 v 2.025532 h -0.90678 z"
         style="font-style:normal;font-variant:normal;font-weight:bold;font-stretch:condensed;font-size:8.03932px;font-family:Arial;-inkscape-font-specification:'Arial, Bold Condensed';font-variant-ligatures:normal;font-variant-caps:normal;font-variant-numeric:normal;font-variant-east-asian:normal;stroke-width:0.317341"
         id="path850" />
    </g>
    <path
       style="display:inline;fill:none;stroke:#000000;stroke-width:0.565;stroke-linecap:round;stroke-linejoin:miter;stroke-miterlimit:4;stroke-dasharray:none;stroke-opacity:1"
       d="m 118.73202,87.771717 h 7.73906"
       id="path2284" />
    <path
       style="display:inline;fill:none;stroke:#000000;stroke-width:0.565;stroke-linecap:round;stroke-linejoin:miter;stroke-miterlimit:4;stroke-dasharray:none;stroke-opacity:1"
       d="m 128.38931,87.80479 h 7.60677"
       id="path2286" />
    <path
       style="display:inline;fill:none;stroke:#000000;stroke-width:0.565;stroke-linecap:round;stroke-linejoin:miter;stroke-miterlimit:4;stroke-dasharray:none;stroke-opacity:1"
       d="m 138.14582,87.771717 h 7.80521"
       id="path2288" />
    <path
       style="display:inline;fill:none;stroke:#000000;stroke-width:0.565;stroke-linecap:round;stroke-linejoin:round;stroke-miterlimit:4;stroke-dasharray:none;stroke-opacity:1"
       d="m 195.59348,83.306874 4.16719,4.464843 -4.13412,4.431771"
       id="path2290" />
    <path
       style="display:inline;fill:none;stroke:#000000;stroke-width:0.565;stroke-linecap:round;stroke-linejoin:miter;stroke-miterlimit:4;stroke-dasharray:none;stroke-opacity:1"
       d="m 199.76067,87.771717 h -7.17683"
       id="path2292" />
    <path
       style="display:inline;fill:none;stroke:#000000;stroke-width:0.565;stroke-linecap:round;stroke-linejoin:miter;stroke-miterlimit:4;stroke-dasharray:none;stroke-opacity:1"
       d="m 190.50025,87.80479 h -7.67292"
       id="path2294" />
    <path
       style="display:inline;fill:none;stroke:#000000;stroke-width:0.565;stroke-linecap:round;stroke-linejoin:miter;stroke-miterlimit:4;stroke-dasharray:none;stroke-opacity:1"
       d="m 180.9091,87.771717 h -7.83828"
       id="path2296" />
    <path
       style="fill:none;stroke:#000000;stroke-width:0.6;stroke-linecap:butt;stroke-linejoin:miter;stroke-opacity:1;stroke-miterlimit:4;stroke-dasharray:none"
       d="m 107.77507,81.159003 -0.0801,13.062947"
       id="path1952" />
    <path
       style="fill:none;stroke:#000000;stroke-width:0.6;stroke-linecap:butt;stroke-linejoin:miter;stroke-opacity:1;stroke-miterlimit:4;stroke-dasharray:none"
       d="m 211.15668,81.159003 0.16028,13.062947"
       id="path1954" />
    <circle
       style="display:inline;fill:none;stroke:#000000;stroke-width:0.542;stroke-linecap:round;stroke-linejoin:round;stroke-miterlimit:4;stroke-dasharray:none;stroke-opacity:1"
       id="path2077-26-7-4-0"
       cx="114.21503"
       cy="87.639099"
       r="4.459846" />
    <circle
       style="display:inline;fill:none;stroke:#000000;stroke-width:0.542;stroke-linecap:round;stroke-linejoin:round;stroke-miterlimit:4;stroke-dasharray:none;stroke-opacity:1"
       id="path2077-26-7-4-0-9"
       cx="204.88205"
       cy="87.615479"
       r="4.459846" />
  </g>
</svg>
