<?xml version="1.0" encoding="UTF-8" standalone="no"?>
<svg
   xmlns:dc="http://purl.org/dc/elements/1.1/"
   xmlns:cc="http://creativecommons.org/ns#"
   xmlns:rdf="http://www.w3.org/1999/02/22-rdf-syntax-ns#"
   xmlns:svg="http://www.w3.org/2000/svg"
   xmlns="http://www.w3.org/2000/svg"
   xmlns:sodipodi="http://sodipodi.sourceforge.net/DTD/sodipodi-0.dtd"
   xmlns:inkscape="http://www.inkscape.org/namespaces/inkscape"
   width="86.336311mm"
   height="21.705189mm"
   viewBox="0 0 86.336311 21.705189"
   version="1.1"
   id="svg8"
   inkscape:version="1.0.2-2 (e86c870879, 2021-01-15)"
   sodipodi:docname="title_banner.svg">
  <defs
     id="defs2" />
  <sodipodi:namedview
     id="base"
     pagecolor="#ffffff"
     bordercolor="#666666"
     borderopacity="1.0"
     inkscape:pageopacity="0.0"
     inkscape:pageshadow="2"
     inkscape:zoom="1.4"
     inkscape:cx="226.70078"
     inkscape:cy="-11.843336"
     inkscape:document-units="mm"
     inkscape:current-layer="layer1"
     inkscape:document-rotation="0"
     showgrid="false"
     fit-margin-top="0"
     fit-margin-left="0"
     fit-margin-right="0"
     fit-margin-bottom="0"
     inkscape:showpageshadow="true"
     inkscape:pagecheckerboard="true"
     inkscape:window-width="1346"
     inkscape:window-height="1041"
     inkscape:window-x="182"
     inkscape:window-y="0"
     inkscape:window-maximized="0" />
  <metadata
     id="metadata5">
    <rdf:RDF>
      <cc:Work
         rdf:about="">
        <dc:format>image/svg+xml</dc:format>
        <dc:type
           rdf:resource="http://purl.org/dc/dcmitype/StillImage" />
        <dc:title />
      </cc:Work>
    </rdf:RDF>
  </metadata>
  <g
     inkscape:label="Layer 1"
     inkscape:groupmode="layer"
     id="layer1"
     transform="translate(-60.013834,-29.510538)">
    <g
       id="g862"
       style="stroke-width:1.1;stroke-miterlimit:4;stroke-dasharray:none">
      <g
         id="g856"
         transform="matrix(0.60621714,0,0,0.60621714,49.708268,17.985108)"
         style="stroke-width:1.81453;stroke-miterlimit:4;stroke-dasharray:none">
        <rect
           style="fill:none;fill-rule:evenodd;stroke:#000000;stroke-width:1.81453;stroke-miterlimit:4;stroke-dasharray:none;stroke-opacity:1"
           id="rect12"
           width="29.934185"
           height="29.934185"
           x="17.907059"
           y="20.847023" />
        <path
           style="fill:#ff6800;fill-opacity:1;stroke:none;stroke-width:1.81453;stroke-linecap:round;stroke-linejoin:round;stroke-miterlimit:4;stroke-dasharray:none;stroke-opacity:1"
           d="m 32.998386,36.080073 c 7.79341,-7.794581 14.202207,-14.171966 14.241761,-14.171966 0.03955,0 0.07193,6.377385 0.07193,14.171966 V 50.252041 H 33.070307 18.828545 Z"
           id="path839" />
        <path
           style="fill:none;stroke:#000000;stroke-width:1.81453;stroke-linecap:butt;stroke-linejoin:miter;stroke-miterlimit:4;stroke-dasharray:none;stroke-opacity:1"
           d="M 47.841243,20.847023 17.907059,50.781209"
           id="path837" />
      </g>
    </g>
    <g
       aria-label="Orienteering"
       id="text843"
       style="font-style:normal;font-weight:normal;font-size:10.5833px;line-height:1.25;font-family:sans-serif;fill:#000000;fill-opacity:1;stroke:none;stroke-width:0.264583">
      <path
         d="m 84.752031,30.544063 q -1.136877,0 -1.808669,0.847491 -0.666624,0.847491 -0.666624,2.309929 0,1.457271 0.666624,2.304761 0.671792,0.847491 1.808669,0.847491 1.136878,0 1.798335,-0.847491 0.666623,-0.84749 0.666623,-2.304761 0,-1.462438 -0.666623,-2.309929 -0.661457,-0.847491 -1.798335,-0.847491 z m 0,-0.847491 q 1.622635,0 2.594149,1.090369 0.971514,1.085202 0.971514,2.914542 0,1.824172 -0.971514,2.914541 -0.971514,1.085202 -2.594149,1.085202 -1.627802,0 -2.604483,-1.085202 -0.971514,-1.085201 -0.971514,-2.914541 0,-1.82934 0.971514,-2.914542 0.976681,-1.090369 2.604483,-1.090369 z"
         style="stroke-width:0.264583"
         id="path840" />
      <path
         d="m 93.263113,32.652455 q -0.160197,-0.09302 -0.351399,-0.134359 -0.186034,-0.04651 -0.41341,-0.04651 -0.80615,0 -1.24023,0.527098 -0.428913,0.52193 -0.428913,1.503779 v 3.0489 H 89.87315 v -5.787742 h 0.956011 v 0.899167 q 0.299722,-0.527098 0.780311,-0.780312 0.48059,-0.258381 1.167884,-0.258381 0.09819,0 0.21704,0.0155 0.118856,0.01033 0.263549,0.03617 z"
         style="stroke-width:0.264583"
         id="path842" />
      <path
         d="m 94.260465,31.763623 h 0.950843 v 5.787742 h -0.950843 z m 0,-2.253085 h 0.950843 v 1.204057 h -0.950843 z"
         style="stroke-width:0.264583"
         id="path844" />
      <path
         d="m 102.15143,34.419783 v 0.465086 h -4.371811 q 0.06201,0.98185 0.58911,1.498612 0.532265,0.511595 1.477941,0.511595 0.54777,0 1.05936,-0.134358 0.51677,-0.134358 1.02319,-0.403075 v 0.899167 q -0.51159,0.21704 -1.04902,0.330728 -0.53744,0.113688 -1.090374,0.113688 -1.384924,0 -2.196241,-0.80615 -0.80615,-0.806149 -0.80615,-2.180738 0,-1.421098 0.764809,-2.253085 0.769976,-0.837156 2.072218,-0.837156 1.167888,0 1.844838,0.754473 0.68213,0.749306 0.68213,2.041213 z m -0.95084,-0.279052 q -0.0103,-0.780311 -0.43925,-1.245398 -0.42375,-0.465086 -1.126543,-0.465086 -0.795814,0 -1.276404,0.449583 -0.475421,0.449584 -0.547768,1.266069 z"
         style="stroke-width:0.264583"
         id="path846" />
      <path
         d="m 108.52312,34.058049 v 3.493316 h -0.95085 v -3.46231 q 0,-0.821653 -0.32039,-1.229895 -0.32039,-0.408243 -0.96118,-0.408243 -0.76998,0 -1.21439,0.490925 -0.44442,0.490924 -0.44442,1.338415 v 3.271108 h -0.95601 v -5.787742 h 0.95601 v 0.899167 q 0.34107,-0.52193 0.80098,-0.780312 0.46509,-0.258381 1.0697,-0.258381 0.99736,0 1.50895,0.620115 0.5116,0.614948 0.5116,1.813837 z"
         style="stroke-width:0.264583"
         id="path848" />
      <path
         d="m 111.36014,30.120318 v 1.643305 h 1.95853 v 0.738971 h -1.95853 v 3.141917 q 0,0.707964 0.19121,0.909502 0.19637,0.201537 0.79064,0.201537 h 0.97668 v 0.795815 h -0.97668 q -1.1007,0 -1.51928,-0.408243 -0.41858,-0.41341 -0.41858,-1.498611 v -3.141917 h -0.69763 v -0.738971 h 0.69763 v -1.643305 z"
         style="stroke-width:0.264583"
         id="path850" />
      <path
         d="m 119.51983,34.419783 v 0.465086 h -4.37182 q 0.062,0.98185 0.58911,1.498612 0.53227,0.511595 1.47794,0.511595 0.54777,0 1.05937,-0.134358 0.51676,-0.134358 1.02319,-0.403075 v 0.899167 q -0.5116,0.21704 -1.04903,0.330728 -0.53743,0.113688 -1.09037,0.113688 -1.38492,0 -2.19624,-0.80615 -0.80615,-0.806149 -0.80615,-2.180738 0,-1.421098 0.76481,-2.253085 0.76997,-0.837156 2.07222,-0.837156 1.16788,0 1.84484,0.754473 0.68213,0.749306 0.68213,2.041213 z m -0.95085,-0.279052 q -0.0103,-0.780311 -0.43925,-1.245398 -0.42374,-0.465086 -1.12654,-0.465086 -0.79581,0 -1.2764,0.449583 -0.47542,0.449584 -0.54777,1.266069 z"
         style="stroke-width:0.264583"
         id="path852" />
      <path
         d="m 126.03103,34.419783 v 0.465086 h -4.37181 q 0.062,0.98185 0.58911,1.498612 0.53227,0.511595 1.47794,0.511595 0.54777,0 1.05937,-0.134358 0.51676,-0.134358 1.02319,-0.403075 v 0.899167 q -0.5116,0.21704 -1.04903,0.330728 -0.53744,0.113688 -1.09037,0.113688 -1.38493,0 -2.19624,-0.80615 -0.80615,-0.806149 -0.80615,-2.180738 0,-1.421098 0.76481,-2.253085 0.76997,-0.837156 2.07221,-0.837156 1.16789,0 1.84485,0.754473 0.68212,0.749306 0.68212,2.041213 z m -0.95084,-0.279052 q -0.0103,-0.780311 -0.43925,-1.245398 -0.42374,-0.465086 -1.12654,-0.465086 -0.79581,0 -1.2764,0.449583 -0.47543,0.449584 -0.54777,1.266069 z"
         style="stroke-width:0.264583"
         id="path854" />
      <path
         d="m 130.94545,32.652455 q -0.1602,-0.09302 -0.3514,-0.134359 -0.18603,-0.04651 -0.41341,-0.04651 -0.80615,0 -1.24023,0.527098 -0.42891,0.52193 -0.42891,1.503779 v 3.0489 h -0.95601 v -5.787742 h 0.95601 v 0.899167 q 0.29972,-0.527098 0.78031,-0.780312 0.48059,-0.258381 1.16788,-0.258381 0.0982,0 0.21704,0.0155 0.11886,0.01033 0.26355,0.03617 z"
         style="stroke-width:0.264583"
         id="path856" />
      <path
         d="m 131.9428,31.763623 h 0.95085 v 5.787742 h -0.95085 z m 0,-2.253085 h 0.95085 v 1.204057 h -0.95085 z"
         style="stroke-width:0.264583"
         id="path858" />
      <path
         d="m 139.69424,34.058049 v 3.493316 h -0.95084 v -3.46231 q 0,-0.821653 -0.3204,-1.229895 -0.32039,-0.408243 -0.96118,-0.408243 -0.76997,0 -1.21439,0.490925 -0.44441,0.490924 -0.44441,1.338415 v 3.271108 H 134.847 v -5.787742 h 0.95602 v 0.899167 q 0.34106,-0.52193 0.80098,-0.780312 0.46508,-0.258381 1.0697,-0.258381 0.99735,0 1.50894,0.620115 0.5116,0.614948 0.5116,1.813837 z"
         style="stroke-width:0.264583"
         id="path860" />
      <path
         d="m 145.3993,34.590315 q 0,-1.033526 -0.42891,-1.601965 -0.42375,-0.568438 -1.19373,-0.568438 -0.7648,0 -1.19372,0.568438 -0.42374,0.568439 -0.42374,1.601965 0,1.028357 0.42374,1.596796 0.42892,0.568439 1.19372,0.568439 0.76998,0 1.19373,-0.568439 0.42891,-0.568439 0.42891,-1.596796 z m 0.95084,2.24275 q 0,1.477941 -0.65629,2.196241 -0.65628,0.723468 -2.0102,0.723468 -0.50126,0 -0.94568,-0.07751 -0.44441,-0.07235 -0.86299,-0.227376 v -0.925005 q 0.41858,0.227375 0.82682,0.335895 0.40824,0.108521 0.83199,0.108521 0.93534,0 1.40042,-0.490925 0.46509,-0.485757 0.46509,-1.472774 v -0.470254 q -0.29456,0.511595 -0.75447,0.764809 -0.45992,0.253214 -1.10071,0.253214 -1.06453,0 -1.71565,-0.811318 -0.65112,-0.811317 -0.65112,-2.149732 0,-1.343583 0.65112,-2.154901 0.65112,-0.811317 1.71565,-0.811317 0.64079,0 1.10071,0.253214 0.45991,0.253213 0.75447,0.764808 v -0.878496 h 0.95084 z"
         style="stroke-width:0.264583"
         id="path862" />
    </g>
    <g
       aria-label="Symbols"
       id="text851"
       style="font-style:normal;font-weight:normal;font-size:10.5833px;line-height:1.25;font-family:sans-serif;fill:#000000;fill-opacity:1;stroke:none;stroke-width:0.264583">
      <path
         d="m 86.484253,41.552263 v 1.018023 q -0.594277,-0.28422 -1.121375,-0.423745 -0.527098,-0.139526 -1.018023,-0.139526 -0.852658,0 -1.317745,0.330728 -0.459918,0.330728 -0.459918,0.940508 0,0.511595 0.30489,0.775144 0.310057,0.258381 1.167883,0.418578 l 0.630451,0.12919 q 1.167883,0.222208 1.720819,0.78548 0.558104,0.558103 0.558104,1.498611 0,1.121375 -0.754473,1.70015 -0.749306,0.578774 -2.201409,0.578774 -0.547769,0 -1.167884,-0.124023 -0.614948,-0.124023 -1.276404,-0.366902 v -1.074866 q 0.635618,0.356566 1.245398,0.537433 0.60978,0.180867 1.19889,0.180867 0.893999,0 1.379756,-0.351399 0.485757,-0.351398 0.485757,-1.002519 0,-0.568439 -0.351399,-0.888832 -0.346231,-0.320393 -1.142045,-0.480589 l -0.635618,-0.124023 q -1.167884,-0.232544 -1.689814,-0.728636 -0.521931,-0.496092 -0.521931,-1.379756 0,-1.02319 0.7183,-1.6123 0.723468,-0.589109 1.989537,-0.589109 0.542601,0 1.105872,0.09819 0.563271,0.09819 1.152381,0.294554 z"
         style="stroke-width:0.264583"
         id="path865" />
      <path
         d="m 90.943914,49.55175 q -0.403075,1.033525 -0.785479,1.34875 -0.382404,0.315226 -1.02319,0.315226 h -0.759641 v -0.795815 h 0.558104 q 0.392739,0 0.60978,-0.186035 0.21704,-0.186034 0.480589,-0.878496 l 0.170531,-0.434081 -2.340934,-5.694724 h 1.007687 l 1.808669,4.526841 1.80867,-4.526841 h 1.007687 z"
         style="stroke-width:0.264583"
         id="path867" />
      <path
         d="m 99.305134,44.337614 q 0.356567,-0.640785 0.852656,-0.945675 0.4961,-0.30489 1.16789,-0.30489 0.90433,0 1.39526,0.635618 0.49092,0.63045 0.49092,1.798334 v 3.493316 h -0.95601 v -3.46231 q 0,-0.831988 -0.29456,-1.235063 -0.29455,-0.403075 -0.89916,-0.403075 -0.73897,0 -1.167886,0.490924 -0.428913,0.490925 -0.428913,1.338416 v 3.271108 H 98.50932 v -3.46231 q 0,-0.837156 -0.294555,-1.235063 -0.294555,-0.403075 -0.909502,-0.403075 -0.728636,0 -1.157549,0.496092 -0.428913,0.490925 -0.428913,1.333248 v 3.271108 H 94.76279 v -5.787742 h 0.956011 v 0.899167 q 0.325561,-0.532266 0.780312,-0.78548 0.454751,-0.253213 1.080034,-0.253213 0.630451,0 1.069699,0.320393 0.444416,0.320392 0.656288,0.930172 z"
         style="stroke-width:0.264583"
         id="path869" />
      <path
         d="m 109.26315,46.125613 q 0,-1.049028 -0.43408,-1.643305 -0.42891,-0.599445 -1.18339,-0.599445 -0.75447,0 -1.18855,0.599445 -0.42891,0.594277 -0.42891,1.643305 0,1.049028 0.42891,1.648473 0.43408,0.594277 1.18855,0.594277 0.75448,0 1.18339,-0.594277 0.43408,-0.599445 0.43408,-1.648473 z m -3.23493,-2.020542 q 0.29972,-0.516763 0.75447,-0.764809 0.45992,-0.253213 1.09554,-0.253213 1.05419,0 1.71048,0.837155 0.66146,0.837156 0.66146,2.201409 0,1.364254 -0.66146,2.201409 -0.65629,0.837156 -1.71048,0.837156 -0.63562,0 -1.09554,-0.248046 -0.45475,-0.253214 -0.75447,-0.769977 v 0.868162 h -0.95601 v -8.040828 h 0.95601 z"
         style="stroke-width:0.264583"
         id="path871" />
      <path
         d="m 114.06904,43.893198 q -0.76481,0 -1.20922,0.599445 -0.44442,0.594277 -0.44442,1.63297 0,1.038693 0.43925,1.638138 0.44442,0.594277 1.21439,0.594277 0.75964,0 1.20406,-0.599445 0.44442,-0.599444 0.44442,-1.63297 0,-1.028358 -0.44442,-1.627802 -0.44442,-0.604613 -1.20406,-0.604613 z m 0,-0.806149 q 1.24023,0 1.9482,0.806149 0.70796,0.80615 0.70796,2.232415 0,1.421098 -0.70796,2.232415 -0.70797,0.80615 -1.9482,0.80615 -1.24539,0 -1.95336,-0.80615 -0.7028,-0.811317 -0.7028,-2.232415 0,-1.426265 0.7028,-2.232415 0.70797,-0.806149 1.95336,-0.806149 z"
         style="stroke-width:0.264583"
         id="path873" />
      <path
         d="m 118.30133,40.973489 h 0.95084 v 8.040828 h -0.95084 z"
         style="stroke-width:0.264583"
         id="path875" />
      <path
         d="m 124.9314,43.397106 v 0.899167 q -0.40308,-0.206705 -0.83716,-0.310057 -0.43408,-0.103353 -0.89917,-0.103353 -0.70796,0 -1.06453,0.21704 -0.3514,0.217041 -0.3514,0.651121 0,0.330729 0.25322,0.521931 0.25321,0.186034 1.01802,0.356566 l 0.32556,0.07235 q 1.01285,0.21704 1.4366,0.614947 0.42891,0.39274 0.42891,1.100705 0,0.80615 -0.64078,1.276404 -0.63562,0.470254 -1.75183,0.470254 -0.46508,0 -0.97151,-0.09302 -0.50126,-0.08785 -1.05937,-0.268716 v -0.981849 q 0.5271,0.273884 1.0387,0.41341 0.51159,0.134358 1.01285,0.134358 0.67179,0 1.03353,-0.227375 0.36173,-0.232544 0.36173,-0.651121 0,-0.387572 -0.26355,-0.594277 -0.25838,-0.206705 -1.14204,-0.397908 l -0.33073,-0.07751 q -0.88367,-0.186035 -1.2764,-0.568439 -0.39274,-0.387572 -0.39274,-1.059364 0,-0.816485 0.57877,-1.2609 0.57877,-0.444416 1.64331,-0.444416 0.52709,0 0.99218,0.07751 0.46509,0.07751 0.85783,0.232543 z"
         style="stroke-width:0.264583"
         id="path877" />
    </g>
  </g>
</svg>
